<?xml version="1.0" encoding="UTF-8"?>
<svg fill="#FFFFFF" xmlns="http://www.w3.org/2000/svg"  viewBox="0 0 64 64" width="64px" height="64px"><path d="M 31 4 C 15.011719 4 2 17.007813 2 33 C 2 48.992188 15.011719 62 31 62 C 46.988281 62 60 48.992188 60 33 C 60 28.355469 58.867188 23.769531 56.746094 19.671875 L 62.707031 13.707031 C 63.097656 13.316406 63.097656 12.683594 62.707031 12.292969 L 58.707031 8.292969 C 58.316406 7.902344 57.683594 7.902344 57.292969 8.292969 L 52.226563 13.359375 C 52.179688 13.234375 52.109375 13.117188 52.015625 13.015625 C 46.484375 7.203125 39.019531 4 31 4 Z M 31 6 C 38.46875 6 45.417969 8.980469 50.5625 14.394531 C 50.675781 14.511719 50.808594 14.585938 50.949219 14.636719 L 47.984375 17.601563 C 47.9375 17.484375 47.875 17.371094 47.78125 17.269531 C 47.613281 17.089844 47.441406 16.914063 47.265625 16.738281 C 46.605469 16.078125 45.902344 15.457031 45.171875 14.882813 C 44.734375 14.542969 44.105469 14.617188 43.765625 15.050781 C 43.425781 15.488281 43.5 16.113281 43.9375 16.453125 C 44.605469 16.976563 45.246094 17.550781 45.847656 18.152344 C 46.007813 18.3125 46.167969 18.476563 46.320313 18.640625 C 46.429688 18.753906 46.5625 18.832031 46.703125 18.886719 L 31 34.585938 L 20.707031 24.292969 C 20.316406 23.902344 19.683594 23.902344 19.292969 24.292969 L 15.292969 28.292969 C 14.902344 28.683594 14.902344 29.316406 15.292969 29.707031 L 30.292969 44.707031 C 30.488281 44.902344 30.742188 45 31 45 C 31.257813 45 31.511719 44.902344 31.707031 44.707031 L 50.691406 25.722656 C 50.757813 25.902344 50.820313 26.082031 50.882813 26.265625 C 50.984375 26.5625 51.078125 26.863281 51.164063 27.167969 C 51.199219 27.296875 51.246094 27.425781 51.28125 27.554688 C 51.398438 28.007813 51.503906 28.464844 51.59375 28.921875 C 51.609375 29 51.621094 29.078125 51.636719 29.15625 C 52.457031 33.640625 51.78125 38.292969 49.769531 42.359375 C 49.667969 42.5625 49.566406 42.769531 49.457031 42.972656 C 49.292969 43.28125 49.117188 43.589844 48.9375 43.890625 C 48.769531 44.167969 48.59375 44.433594 48.414063 44.699219 C 48.257813 44.929688 48.109375 45.167969 47.941406 45.394531 C 47.597656 45.871094 47.234375 46.324219 46.851563 46.765625 C 46.714844 46.921875 46.566406 47.070313 46.425781 47.222656 C 40.472656 53.667969 30.84375 55.941406 22.40625 52.160156 C 19.886719 51.03125 17.714844 49.453125 15.90625 47.578125 C 15.65625 47.320313 15.421875 47.050781 15.1875 46.78125 C 14.949219 46.507813 14.710938 46.234375 14.488281 45.953125 C 14.316406 45.734375 14.160156 45.507813 14 45.285156 C 13.742188 44.933594 13.492188 44.582031 13.261719 44.214844 C 13.15625 44.050781 13.0625 43.878906 12.964844 43.710938 C 12.710938 43.285156 12.464844 42.855469 12.242188 42.410156 C 12.175781 42.273438 12.117188 42.132813 12.050781 41.996094 C 11.828125 41.527344 11.613281 41.050781 11.425781 40.566406 C 11.363281 40.40625 11.3125 40.238281 11.253906 40.078125 C 11.09375 39.621094 10.933594 39.160156 10.800781 38.691406 C 10.730469 38.441406 10.679688 38.183594 10.617188 37.929688 C 10.523438 37.550781 10.433594 37.175781 10.359375 36.792969 C 10.292969 36.414063 10.246094 36.035156 10.199219 35.65625 C 10.164063 35.390625 10.121094 35.125 10.097656 34.859375 C 10.054688 34.382813 10.039063 33.902344 10.03125 33.421875 C 10.023438 33.242188 10.015625 33.066406 10.015625 32.890625 C 10.019531 32.371094 10.050781 31.855469 10.089844 31.339844 C 10.101563 31.183594 10.105469 31.03125 10.121094 30.875 C 10.171875 30.386719 10.246094 29.894531 10.332031 29.40625 C 10.363281 29.214844 10.394531 29.019531 10.433594 28.828125 C 10.515625 28.402344 10.628906 27.988281 10.738281 27.566406 C 10.8125 27.300781 10.878906 27.035156 10.960938 26.769531 C 11.066406 26.421875 11.191406 26.082031 11.316406 25.742188 C 11.441406 25.410156 11.566406 25.074219 11.707031 24.746094 C 11.855469 24.394531 12.019531 24.050781 12.1875 23.707031 C 12.296875 23.484375 12.40625 23.253906 12.523438 23.035156 C 12.746094 22.617188 12.992188 22.210938 13.25 21.808594 C 13.335938 21.667969 13.414063 21.523438 13.503906 21.386719 C 13.859375 20.851563 14.242188 20.332031 14.652344 19.828125 C 14.75 19.703125 14.859375 19.589844 14.960938 19.46875 C 15.285156 19.085938 15.621094 18.710938 15.972656 18.34375 C 16.203125 18.113281 16.433594 17.882813 16.671875 17.660156 C 16.773438 17.566406 16.875 17.464844 16.980469 17.371094 C 17.34375 17.046875 17.71875 16.734375 18.101563 16.433594 C 18.230469 16.332031 18.367188 16.238281 18.5 16.140625 C 18.761719 15.945313 19.03125 15.753906 19.300781 15.574219 C 19.484375 15.449219 19.667969 15.328125 19.855469 15.214844 C 20.085938 15.070313 20.320313 14.933594 20.554688 14.796875 C 20.964844 14.5625 21.382813 14.339844 21.808594 14.136719 C 21.964844 14.058594 22.117188 13.976563 22.273438 13.90625 C 22.570313 13.769531 22.867188 13.648438 23.167969 13.527344 C 23.292969 13.476563 23.417969 13.429688 23.546875 13.378906 C 23.871094 13.257813 24.199219 13.132813 24.53125 13.027344 C 24.539063 13.023438 24.542969 13.023438 24.550781 13.023438 C 25.320313 12.777344 26.101563 12.570313 26.894531 12.410156 L 26.925781 12.40625 C 27.296875 12.332031 27.671875 12.269531 28.046875 12.21875 C 28.125 12.207031 28.203125 12.195313 28.28125 12.1875 C 29.335938 12.046875 30.40625 11.992188 31.476563 12.015625 C 31.691406 12.019531 31.902344 12.023438 32.117188 12.035156 C 32.378906 12.050781 32.640625 12.066406 32.90625 12.089844 C 33.261719 12.121094 33.621094 12.167969 33.984375 12.21875 C 34.101563 12.234375 34.222656 12.246094 34.339844 12.265625 C 34.886719 12.351563 35.398438 11.980469 35.484375 11.4375 L 35.484375 11.433594 C 35.574219 10.886719 35.203125 10.375 34.65625 10.285156 C 34.53125 10.265625 34.40625 10.261719 34.28125 10.242188 C 33.882813 10.183594 33.480469 10.136719 33.078125 10.097656 C 32.800781 10.074219 32.527344 10.058594 32.25 10.042969 C 31.992188 10.027344 31.738281 10.019531 31.484375 10.015625 C 30.355469 9.992188 29.238281 10.054688 28.136719 10.191406 C 27.988281 10.210938 27.84375 10.230469 27.699219 10.25 C 27.332031 10.304688 26.96875 10.363281 26.605469 10.4375 C 26.492188 10.457031 26.382813 10.484375 26.269531 10.507813 C 25.597656 10.652344 24.929688 10.820313 24.277344 11.023438 C 24.132813 11.066406 23.992188 11.105469 23.847656 11.152344 C 23.546875 11.253906 23.25 11.363281 22.949219 11.472656 C 22.726563 11.558594 22.503906 11.644531 22.285156 11.734375 C 22.027344 11.839844 21.765625 11.945313 21.511719 12.0625 C 21.066406 12.265625 20.621094 12.480469 20.1875 12.710938 C 20.042969 12.789063 19.902344 12.875 19.757813 12.953125 C 19.40625 13.152344 19.058594 13.355469 18.71875 13.570313 C 18.570313 13.664063 18.421875 13.761719 18.273438 13.859375 C 17.898438 14.109375 17.53125 14.371094 17.171875 14.640625 C 17.089844 14.703125 17.003906 14.761719 16.921875 14.824219 C 16.472656 15.171875 16.035156 15.539063 15.609375 15.921875 C 15.539063 15.984375 15.476563 16.046875 15.40625 16.109375 C 15.183594 16.316406 14.957031 16.523438 14.738281 16.738281 C 14.660156 16.816406 14.59375 16.902344 14.515625 16.984375 C 14.164063 17.347656 13.824219 17.730469 13.492188 18.121094 C 13.355469 18.277344 13.210938 18.433594 13.082031 18.59375 C 12.648438 19.132813 12.234375 19.691406 11.847656 20.269531 C 11.734375 20.445313 11.636719 20.621094 11.53125 20.796875 C 11.265625 21.21875 11.007813 21.640625 10.769531 22.082031 C 10.636719 22.332031 10.515625 22.585938 10.390625 22.839844 C 10.269531 23.089844 10.132813 23.332031 10.015625 23.589844 C 9.925781 23.792969 9.847656 23.996094 9.765625 24.199219 C 9.730469 24.277344 9.695313 24.355469 9.664063 24.4375 C 9.402344 25.089844 9.171875 25.75 8.972656 26.414063 C 8.964844 26.433594 8.960938 26.453125 8.953125 26.472656 C 8.097656 29.363281 7.839844 32.316406 8.117188 35.195313 C 8.121094 35.203125 8.121094 35.210938 8.125 35.21875 C 8.191406 35.910156 8.289063 36.59375 8.417969 37.269531 C 8.433594 37.363281 8.457031 37.457031 8.476563 37.550781 C 8.59375 38.148438 8.738281 38.734375 8.90625 39.320313 C 8.953125 39.492188 9.007813 39.660156 9.058594 39.828125 C 9.21875 40.34375 9.394531 40.851563 9.589844 41.351563 C 9.671875 41.566406 9.757813 41.777344 9.851563 41.988281 C 10.046875 42.457031 10.261719 42.917969 10.488281 43.371094 C 10.597656 43.585938 10.707031 43.796875 10.824219 44.003906 C 11.074219 44.472656 11.347656 44.925781 11.628906 45.375 C 11.738281 45.546875 11.847656 45.714844 11.960938 45.878906 C 12.296875 46.378906 12.652344 46.859375 13.027344 47.332031 C 13.109375 47.433594 13.1875 47.539063 13.273438 47.640625 C 13.710938 48.171875 14.175781 48.6875 14.664063 49.179688 C 14.691406 49.207031 14.714844 49.238281 14.738281 49.265625 C 14.746094 49.269531 14.753906 49.269531 14.757813 49.273438 C 16.679688 51.195313 18.96875 52.808594 21.59375 53.984375 C 24.640625 55.351563 27.828125 56 30.96875 56 C 37.042969 56 42.933594 53.578125 47.257813 49.269531 C 47.261719 49.265625 47.265625 49.265625 47.265625 49.261719 C 47.347656 49.183594 47.414063 49.097656 47.492188 49.015625 C 47.8125 48.691406 48.128906 48.355469 48.429688 48.003906 C 48.5 47.925781 48.558594 47.839844 48.625 47.761719 C 48.9375 47.390625 49.238281 47.011719 49.527344 46.621094 C 49.558594 46.574219 49.589844 46.53125 49.621094 46.484375 C 50.527344 45.234375 51.332031 43.878906 51.988281 42.410156 C 53.917969 38.109375 54.453125 33.351563 53.605469 28.792969 C 53.589844 28.703125 53.574219 28.617188 53.558594 28.53125 C 53.457031 28.03125 53.347656 27.53125 53.214844 27.035156 C 53.179688 26.894531 53.128906 26.757813 53.089844 26.613281 C 52.992188 26.28125 52.890625 25.945313 52.78125 25.613281 C 52.707031 25.402344 52.632813 25.191406 52.554688 24.980469 C 52.453125 24.710938 52.34375 24.445313 52.234375 24.179688 L 55.265625 21.152344 C 57.050781 24.824219 58 28.886719 58 33 C 58 47.886719 45.886719 60 31 60 C 16.113281 60 4 47.886719 4 33 C 4 18.113281 16.113281 6 31 6 Z M 58 10.414063 L 60.585938 13 L 31 42.585938 L 17.414063 29 L 20 26.414063 L 30.292969 36.707031 C 30.683594 37.097656 31.316406 37.097656 31.707031 36.707031 Z M 38.65625 11.386719 C 38.269531 11.402344 37.910156 11.648438 37.765625 12.035156 C 37.570313 12.554688 37.832031 13.128906 38.351563 13.324219 C 39.066406 13.589844 39.769531 13.898438 40.453125 14.238281 C 40.597656 14.3125 40.75 14.347656 40.902344 14.347656 C 41.265625 14.347656 41.617188 14.148438 41.796875 13.796875 C 42.042969 13.304688 41.84375 12.703125 41.351563 12.453125 C 40.609375 12.078125 39.832031 11.742188 39.050781 11.449219 C 38.921875 11.402344 38.789063 11.382813 38.65625 11.386719 Z"/></svg>