<?xml version="1.0" encoding="UTF-8"?>
<svg width="270" height="63" viewBox="0 0 270 63" fill="none" xmlns="http://www.w3.org/2000/svg">
<g filter="url(#filter0_d_215_280)">
<rect x="4" y="0.105225" width="262" height="54" rx="12" fill="url(#paint0_linear_215_280)" shape-rendering="crispEdges"/>
</g>
<path d="M64.7546 23.1432C64.256 23.0412 63.7233 22.9449 63.1566 22.8542C62.6013 22.7636 61.9553 22.7069 61.2186 22.6842C60.4706 22.6956 59.8246 22.8089 59.2806 23.0242C58.7366 23.2396 58.289 23.5512 57.9376 23.9592C57.5976 24.3559 57.3426 24.8319 57.1726 25.3872C57.0026 25.9426 56.9176 26.5546 56.9176 27.2232C56.9176 28.0846 57.0253 28.8212 57.2406 29.4332C57.4673 30.0452 57.7733 30.5496 58.1586 30.9462C58.5553 31.3316 59.0143 31.6149 59.5356 31.7962C60.057 31.9776 60.618 32.0682 61.2186 32.0682C61.604 32.0682 61.9496 32.0456 62.2556 32.0002C62.573 31.9549 62.845 31.9039 63.0716 31.8472C63.3096 31.7792 63.525 31.7056 63.7176 31.6262V28.5152H61.5926V27.2402H65.1626V32.3232C64.766 32.5839 64.2163 32.8219 63.5136 33.0372C62.8223 33.2412 62.0573 33.3376 61.2186 33.3262C60.448 33.3262 59.7056 33.2356 58.9916 33.0542C58.289 32.8729 57.66 32.5556 57.1046 32.1022C56.5606 31.6376 56.1243 31.0086 55.7956 30.2152C55.467 29.4219 55.3026 28.4189 55.3026 27.2062C55.3026 26.2202 55.4556 25.3646 55.7616 24.6392C56.0676 23.9026 56.4813 23.2962 57.0026 22.8202C57.5353 22.3329 58.1473 21.9702 58.8386 21.7322C59.5413 21.4829 60.2836 21.3582 61.0656 21.3582C61.5756 21.3582 62.0686 21.3866 62.5446 21.4432C63.0206 21.4886 63.457 21.5452 63.8536 21.6132C64.2503 21.6699 64.63 21.7436 64.9926 21.8342L64.7546 23.1432ZM74.1792 32.9012C73.9185 32.9806 73.6465 33.0486 73.3632 33.1052C73.0912 33.1619 72.7852 33.2129 72.4452 33.2582C72.1165 33.3036 71.7708 33.3262 71.4082 33.3262C70.8415 33.3262 70.3145 33.2469 69.8272 33.0882C69.3398 32.9296 68.9148 32.6746 68.5522 32.3232C68.1895 31.9719 67.9005 31.5186 67.6852 30.9632C67.4812 30.3966 67.3792 29.7052 67.3792 28.8892C67.3792 28.1526 67.4812 27.5066 67.6852 26.9512C67.8892 26.3846 68.1668 25.9142 68.5182 25.5402C68.8808 25.1549 69.3002 24.8659 69.7762 24.6732C70.2635 24.4806 70.7905 24.3842 71.3572 24.3842C71.9125 24.3842 72.3942 24.4919 72.8022 24.7072C73.2102 24.9226 73.5445 25.2172 73.8052 25.5912C74.0772 25.9539 74.2755 26.3846 74.4002 26.8832C74.5362 27.3706 74.6042 27.8862 74.6042 28.4302L74.3492 29.1782H68.8582C68.8582 29.5296 68.9035 29.8809 68.9942 30.2322C69.0848 30.5836 69.2378 30.9009 69.4532 31.1842C69.6798 31.4676 69.9688 31.6999 70.3202 31.8812C70.6828 32.0512 71.1305 32.1362 71.6632 32.1362C72.0032 32.1362 72.3148 32.1192 72.5982 32.0852C72.8815 32.0399 73.1252 31.9946 73.3292 31.9492C73.5445 31.8926 73.7428 31.8302 73.9242 31.7622L74.1792 32.9012ZM73.1932 28.0902C73.1932 28.0109 73.1762 27.8352 73.1422 27.5632C73.1082 27.2912 73.0288 27.0079 72.9042 26.7132C72.7795 26.4186 72.5868 26.1579 72.3262 25.9312C72.0655 25.6932 71.7198 25.5742 71.2892 25.5742C70.8132 25.5742 70.4222 25.6762 70.1162 25.8802C69.8102 26.0729 69.5665 26.3052 69.3852 26.5772C69.2038 26.8492 69.0792 27.1269 69.0112 27.4102C68.9432 27.6936 68.9092 27.9202 68.9092 28.0902H73.1932ZM78.8688 22.0042V24.5542H81.3338V25.6592H78.8688V30.1982C78.8688 30.5722 78.8744 30.8839 78.8858 31.1332C78.9084 31.3826 78.9481 31.5809 79.0048 31.7282C79.0614 31.8756 79.1408 31.9832 79.2428 32.0512C79.3448 32.1079 79.4751 32.1362 79.6338 32.1362C80.0644 32.1249 80.5631 31.9662 81.1298 31.6602L81.5378 32.6972C81.1638 32.9466 80.8124 33.1109 80.4838 33.1902C80.1664 33.2809 79.8491 33.3262 79.5318 33.3262C78.7838 33.3262 78.2568 33.1166 77.9508 32.6972C77.6561 32.2666 77.5088 31.5582 77.5088 30.5722V25.6592H75.9448V24.5542H77.5088V22.1742L78.8688 22.0042ZM90.8839 21.5112H92.6519L96.6299 33.1052H95.1509L94.1309 30.0112H89.4219L88.3849 33.1052H86.9059L90.8839 21.5112ZM93.6719 28.6512L91.8019 22.8712H91.7509L89.8639 28.6512H93.6719ZM98.8799 21.5112H100.308V31.7452H105.578V33.1052H98.8799V21.5112ZM107.788 21.5112H109.216V31.7452H114.486V33.1052H107.788V21.5112ZM123.155 22.8372H119.517V21.5112H128.221V22.8372H124.583V33.1052H123.155V22.8372ZM128.963 25.9312C128.963 25.6706 128.934 25.2626 128.878 24.7072L130.136 24.5372L130.272 25.7782H130.289C130.493 25.5176 130.691 25.2909 130.884 25.0982C131.076 24.9056 131.275 24.7412 131.479 24.6052C131.694 24.4579 131.898 24.3842 132.091 24.3842C132.351 24.3729 132.714 24.4012 133.179 24.4692L132.873 25.7782C132.499 25.7102 132.238 25.6819 132.091 25.6932C131.898 25.6932 131.694 25.7839 131.479 25.9652C131.263 26.1466 131.076 26.3392 130.918 26.5432C130.714 26.7926 130.515 27.0759 130.323 27.3932V33.1052H128.963V25.9312ZM139.742 29.1782C139.515 29.1896 139.3 29.2009 139.096 29.2122C138.892 29.2236 138.688 29.2406 138.484 29.2632C138.291 29.2746 138.116 29.2916 137.957 29.3142C137.141 29.4162 136.563 29.5976 136.223 29.8582C135.883 30.1076 135.713 30.4702 135.713 30.9462C135.713 31.3429 135.832 31.6432 136.07 31.8472C136.319 32.0399 136.642 32.1362 137.039 32.1362C137.583 32.1362 138.065 32.0456 138.484 31.8642C138.915 31.6716 139.334 31.4222 139.742 31.1162V29.1782ZM139.725 32.3062C139.192 32.6122 138.694 32.8616 138.229 33.0542C137.776 33.2356 137.283 33.3262 136.75 33.3262C135.991 33.3262 135.384 33.1449 134.931 32.7822C134.489 32.4082 134.268 31.7962 134.268 30.9462C134.268 30.5042 134.381 30.1189 134.608 29.7902C134.835 29.4616 135.129 29.1896 135.492 28.9742C135.866 28.7476 136.285 28.5719 136.75 28.4472C137.215 28.3226 137.691 28.2432 138.178 28.2092C138.382 28.1866 138.648 28.1696 138.977 28.1582C139.306 28.1356 139.561 28.1186 139.742 28.1072C139.742 27.7106 139.731 27.3592 139.708 27.0532C139.685 26.7359 139.617 26.4696 139.504 26.2542C139.391 26.0276 139.221 25.8576 138.994 25.7442C138.779 25.6309 138.467 25.5742 138.059 25.5742C137.73 25.5742 137.413 25.5969 137.107 25.6422C136.801 25.6762 136.529 25.7159 136.291 25.7612C136.008 25.8179 135.747 25.8802 135.509 25.9482L135.237 24.7752C135.52 24.7072 135.826 24.6449 136.155 24.5882C136.438 24.5316 136.767 24.4862 137.141 24.4522C137.515 24.4069 137.917 24.3842 138.348 24.3842C138.926 24.3842 139.391 24.4692 139.742 24.6392C140.105 24.8092 140.382 25.0416 140.575 25.3362C140.779 25.6196 140.915 25.9482 140.983 26.3222C141.062 26.6849 141.102 27.0702 141.102 27.4782V31.5582C141.102 31.7169 141.102 31.8869 141.102 32.0682C141.113 32.2382 141.125 32.4082 141.136 32.5782C141.159 32.7482 141.181 32.9239 141.204 33.1052L139.895 33.2412L139.725 32.3062ZM143.941 26.2542C143.952 26.0162 143.924 25.5006 143.856 24.7072L145.114 24.5372L145.301 25.6252C145.641 25.3986 145.975 25.2002 146.304 25.0302C146.644 24.8602 146.989 24.7129 147.341 24.5882C147.692 24.4522 148.032 24.3842 148.361 24.3842C148.825 24.3842 149.211 24.4409 149.517 24.5542C149.834 24.6562 150.089 24.8319 150.282 25.0812C150.474 25.3306 150.61 25.6592 150.69 26.0672C150.78 26.4752 150.826 26.9852 150.826 27.5972V33.1052H149.466V27.7502C149.466 27.4102 149.46 27.1099 149.449 26.8492C149.437 26.5772 149.386 26.3506 149.296 26.1692C149.216 25.9766 149.086 25.8292 148.905 25.7272C148.735 25.6252 148.491 25.5742 148.174 25.5742C147.879 25.5742 147.567 25.6422 147.239 25.7782C146.91 25.9029 146.587 26.0502 146.27 26.2202C145.952 26.3902 145.629 26.5886 145.301 26.8152V33.1052H143.941V26.2542ZM158.269 25.9482C157.793 25.8009 157.368 25.7046 156.994 25.6592C156.632 25.6026 156.297 25.5742 155.991 25.5742C155.595 25.5742 155.26 25.6706 154.988 25.8632C154.728 26.0559 154.597 26.3052 154.597 26.6112C154.609 26.8832 154.728 27.1156 154.954 27.3082C155.181 27.5009 155.442 27.6766 155.736 27.8352C156.042 27.9826 156.377 28.1469 156.739 28.3282C157.113 28.5096 157.459 28.7136 157.776 28.9402C158.105 29.1669 158.371 29.4389 158.575 29.7562C158.779 30.0736 158.887 30.4532 158.898 30.8952C158.887 31.3712 158.779 31.7679 158.575 32.0852C158.383 32.3912 158.128 32.6406 157.81 32.8332C157.504 33.0146 157.17 33.1392 156.807 33.2072C156.445 33.2866 156.105 33.3262 155.787 33.3262C155.379 33.3262 154.954 33.3036 154.512 33.2582C154.082 33.2129 153.617 33.1166 153.118 32.9692L153.373 31.7452C153.883 31.8812 154.348 31.9832 154.767 32.0512C155.187 32.1079 155.532 32.1362 155.804 32.1362C156.008 32.1362 156.207 32.1136 156.399 32.0682C156.603 32.0229 156.785 31.9606 156.943 31.8812C157.102 31.7906 157.227 31.6772 157.317 31.5412C157.419 31.4052 157.47 31.2522 157.47 31.0822C157.459 30.7649 157.351 30.4986 157.147 30.2832C156.943 30.0566 156.677 29.8582 156.348 29.6882C156.031 29.5069 155.685 29.3312 155.311 29.1612C154.949 28.9799 154.603 28.7759 154.274 28.5492C153.957 28.3112 153.691 28.0336 153.475 27.7162C153.26 27.3876 153.152 26.9852 153.152 26.5092C153.152 26.1692 153.237 25.8689 153.407 25.6082C153.589 25.3362 153.815 25.1152 154.087 24.9452C154.371 24.7639 154.677 24.6279 155.005 24.5372C155.345 24.4352 155.674 24.3842 155.991 24.3842C156.32 24.3842 156.688 24.4126 157.096 24.4692C157.504 24.5146 157.975 24.6052 158.507 24.7412L158.269 25.9482ZM165.919 29.1782C165.693 29.1896 165.477 29.2009 165.273 29.2122C165.069 29.2236 164.865 29.2406 164.661 29.2632C164.469 29.2746 164.293 29.2916 164.134 29.3142C163.318 29.4162 162.74 29.5976 162.4 29.8582C162.06 30.1076 161.89 30.4702 161.89 30.9462C161.89 31.3429 162.009 31.6432 162.247 31.8472C162.497 32.0399 162.82 32.1362 163.216 32.1362C163.76 32.1362 164.242 32.0456 164.661 31.8642C165.092 31.6716 165.511 31.4222 165.919 31.1162V29.1782ZM165.902 32.3062C165.37 32.6122 164.871 32.8616 164.406 33.0542C163.953 33.2356 163.46 33.3262 162.927 33.3262C162.168 33.3262 161.562 33.1449 161.108 32.7822C160.666 32.4082 160.445 31.7962 160.445 30.9462C160.445 30.5042 160.559 30.1189 160.785 29.7902C161.012 29.4616 161.307 29.1896 161.669 28.9742C162.043 28.7476 162.463 28.5719 162.927 28.4472C163.392 28.3226 163.868 28.2432 164.355 28.2092C164.559 28.1866 164.826 28.1696 165.154 28.1582C165.483 28.1356 165.738 28.1186 165.919 28.1072C165.919 27.7106 165.908 27.3592 165.885 27.0532C165.863 26.7359 165.795 26.4696 165.681 26.2542C165.568 26.0276 165.398 25.8576 165.171 25.7442C164.956 25.6309 164.644 25.5742 164.236 25.5742C163.908 25.5742 163.59 25.5969 163.284 25.6422C162.978 25.6762 162.706 25.7159 162.468 25.7612C162.185 25.8179 161.924 25.8802 161.686 25.9482L161.414 24.7752C161.698 24.7072 162.004 24.6449 162.332 24.5882C162.616 24.5316 162.944 24.4862 163.318 24.4522C163.692 24.4069 164.095 24.3842 164.525 24.3842C165.103 24.3842 165.568 24.4692 165.919 24.6392C166.282 24.8092 166.56 25.0416 166.752 25.3362C166.956 25.6196 167.092 25.9482 167.16 26.3222C167.24 26.6849 167.279 27.0702 167.279 27.4782V31.5582C167.279 31.7169 167.279 31.8869 167.279 32.0682C167.291 32.2382 167.302 32.4082 167.313 32.5782C167.336 32.7482 167.359 32.9239 167.381 33.1052L166.072 33.2412L165.902 32.3062ZM175.405 25.7952C175.212 25.7499 174.946 25.7046 174.606 25.6592C174.266 25.6026 173.92 25.5742 173.569 25.5742C173.059 25.5742 172.64 25.6762 172.311 25.8802C171.994 26.0842 171.744 26.3506 171.563 26.6792C171.382 26.9966 171.257 27.3536 171.189 27.7502C171.121 28.1356 171.087 28.5152 171.087 28.8892C171.087 29.4672 171.161 29.9659 171.308 30.3852C171.455 30.7932 171.648 31.1276 171.886 31.3882C172.135 31.6489 172.419 31.8416 172.736 31.9662C173.053 32.0796 173.388 32.1362 173.739 32.1362C173.977 32.1362 174.204 32.1249 174.419 32.1022C174.646 32.0682 174.85 32.0342 175.031 32.0002C175.224 31.9549 175.405 31.9039 175.575 31.8472L175.847 32.9862C175.609 33.0542 175.388 33.1109 175.184 33.1562C174.98 33.2016 174.736 33.2412 174.453 33.2752C174.181 33.3092 173.886 33.3262 173.569 33.3262C172.946 33.3262 172.39 33.2469 171.903 33.0882C171.416 32.9296 171.002 32.6746 170.662 32.3232C170.333 31.9719 170.078 31.5129 169.897 30.9462C169.727 30.3796 169.642 29.6882 169.642 28.8722C169.642 28.0789 169.75 27.3989 169.965 26.8322C170.192 26.2542 170.486 25.7896 170.849 25.4382C171.212 25.0756 171.625 24.8092 172.09 24.6392C172.566 24.4692 173.059 24.3842 173.569 24.3842C173.841 24.3842 174.102 24.4012 174.351 24.4352C174.612 24.4579 174.838 24.4862 175.031 24.5202C175.258 24.5656 175.473 24.6109 175.677 24.6562L175.405 25.7952ZM179.936 22.0042V24.5542H182.401V25.6592H179.936V30.1982C179.936 30.5722 179.941 30.8839 179.953 31.1332C179.975 31.3826 180.015 31.5809 180.072 31.7282C180.128 31.8756 180.208 31.9832 180.31 32.0512C180.412 32.1079 180.542 32.1362 180.701 32.1362C181.131 32.1249 181.63 31.9662 182.197 31.6602L182.605 32.6972C182.231 32.9466 181.879 33.1109 181.551 33.1902C181.233 33.2809 180.916 33.3262 180.599 33.3262C179.851 33.3262 179.324 33.1166 179.018 32.6972C178.723 32.2666 178.576 31.5582 178.576 30.5722V25.6592H177.012V24.5542H178.576V22.1742L179.936 22.0042ZM184.564 24.5372L185.924 24.3842V33.1052H184.564V24.5372ZM184.343 22.1062C184.343 21.8456 184.428 21.6302 184.598 21.4602C184.779 21.2789 185 21.1882 185.261 21.1882C185.533 21.1882 185.76 21.2789 185.941 21.4602C186.134 21.6302 186.23 21.8456 186.23 22.1062C186.23 22.3669 186.134 22.5879 185.941 22.7692C185.76 22.9392 185.533 23.0242 185.261 23.0242C185 23.0242 184.779 22.9392 184.598 22.7692C184.428 22.5879 184.343 22.3669 184.343 22.1062ZM189.76 28.8722C189.76 29.9716 190.004 30.7932 190.491 31.3372C190.99 31.8699 191.658 32.1362 192.497 32.1362C193.324 32.1362 193.97 31.8699 194.435 31.3372C194.9 30.8046 195.132 30.0056 195.132 28.9402C195.132 27.8069 194.883 26.9626 194.384 26.4072C193.897 25.8519 193.228 25.5742 192.378 25.5742C191.528 25.5742 190.876 25.8519 190.423 26.4072C189.981 26.9512 189.76 27.7729 189.76 28.8722ZM188.315 28.8552C188.315 27.9939 188.451 27.2799 188.723 26.7132C188.995 26.1352 189.341 25.6762 189.76 25.3362C190.179 24.9849 190.627 24.7412 191.103 24.6052C191.59 24.4579 192.049 24.3842 192.48 24.3842C192.888 24.3842 193.33 24.4522 193.806 24.5882C194.293 24.7129 194.741 24.9452 195.149 25.2852C195.557 25.6139 195.897 26.0616 196.169 26.6282C196.441 27.1836 196.577 27.8919 196.577 28.7532C196.577 29.6486 196.435 30.3909 196.152 30.9802C195.88 31.5696 195.534 32.0399 195.115 32.3912C194.696 32.7312 194.242 32.9692 193.755 33.1052C193.268 33.2526 192.814 33.3262 192.395 33.3262C191.964 33.3262 191.511 33.2582 191.035 33.1222C190.559 32.9862 190.117 32.7539 189.709 32.4252C189.312 32.0852 188.978 31.6262 188.706 31.0482C188.445 30.4702 188.315 29.7392 188.315 28.8552ZM198.995 26.2542C199.006 26.0162 198.978 25.5006 198.91 24.7072L200.168 24.5372L200.355 25.6252C200.695 25.3986 201.029 25.2002 201.358 25.0302C201.698 24.8602 202.043 24.7129 202.395 24.5882C202.746 24.4522 203.086 24.3842 203.415 24.3842C203.879 24.3842 204.265 24.4409 204.571 24.5542C204.888 24.6562 205.143 24.8319 205.336 25.0812C205.528 25.3306 205.664 25.6592 205.744 26.0672C205.834 26.4752 205.88 26.9852 205.88 27.5972V33.1052H204.52V27.7502C204.52 27.4102 204.514 27.1099 204.503 26.8492C204.491 26.5772 204.44 26.3506 204.35 26.1692C204.27 25.9766 204.14 25.8292 203.959 25.7272C203.789 25.6252 203.545 25.5742 203.228 25.5742C202.933 25.5742 202.621 25.6422 202.293 25.7782C201.964 25.9029 201.641 26.0502 201.324 26.2202C201.006 26.3902 200.683 26.5886 200.355 26.8152V33.1052H198.995V26.2542ZM213.323 25.9482C212.847 25.8009 212.422 25.7046 212.048 25.6592C211.686 25.6026 211.351 25.5742 211.045 25.5742C210.649 25.5742 210.314 25.6706 210.042 25.8632C209.782 26.0559 209.651 26.3052 209.651 26.6112C209.663 26.8832 209.782 27.1156 210.008 27.3082C210.235 27.5009 210.496 27.6766 210.79 27.8352C211.096 27.9826 211.431 28.1469 211.793 28.3282C212.167 28.5096 212.513 28.7136 212.83 28.9402C213.159 29.1669 213.425 29.4389 213.629 29.7562C213.833 30.0736 213.941 30.4532 213.952 30.8952C213.941 31.3712 213.833 31.7679 213.629 32.0852C213.437 32.3912 213.182 32.6406 212.864 32.8332C212.558 33.0146 212.224 33.1392 211.861 33.2072C211.499 33.2866 211.159 33.3262 210.841 33.3262C210.433 33.3262 210.008 33.3036 209.566 33.2582C209.136 33.2129 208.671 33.1166 208.172 32.9692L208.427 31.7452C208.937 31.8812 209.402 31.9832 209.821 32.0512C210.241 32.1079 210.586 32.1362 210.858 32.1362C211.062 32.1362 211.261 32.1136 211.453 32.0682C211.657 32.0229 211.839 31.9606 211.997 31.8812C212.156 31.7906 212.281 31.6772 212.371 31.5412C212.473 31.4052 212.524 31.2522 212.524 31.0822C212.513 30.7649 212.405 30.4986 212.201 30.2832C211.997 30.0566 211.731 29.8582 211.402 29.6882C211.085 29.5069 210.739 29.3312 210.365 29.1612C210.003 28.9799 209.657 28.7759 209.328 28.5492C209.011 28.3112 208.745 28.0336 208.529 27.7162C208.314 27.3876 208.206 26.9852 208.206 26.5092C208.206 26.1692 208.291 25.8689 208.461 25.6082C208.643 25.3362 208.869 25.1152 209.141 24.9452C209.425 24.7639 209.731 24.6279 210.059 24.5372C210.399 24.4352 210.728 24.3842 211.045 24.3842C211.374 24.3842 211.742 24.4126 212.15 24.4692C212.558 24.5146 213.029 24.6052 213.561 24.7412L213.323 25.9482Z" fill="white"/>
<defs>
<filter id="filter0_d_215_280" x="0" y="0.105225" width="270" height="62" filterUnits="userSpaceOnUse" color-interpolation-filters="sRGB">
<feFlood flood-opacity="0" result="BackgroundImageFix"/>
<feColorMatrix in="SourceAlpha" type="matrix" values="0 0 0 0 0 0 0 0 0 0 0 0 0 0 0 0 0 0 127 0" result="hardAlpha"/>
<feOffset dy="4"/>
<feGaussianBlur stdDeviation="2"/>
<feComposite in2="hardAlpha" operator="out"/>
<feColorMatrix type="matrix" values="0 0 0 0 0 0 0 0 0 0 0 0 0 0 0 0 0 0 0.25 0"/>
<feBlend mode="normal" in2="BackgroundImageFix" result="effect1_dropShadow_215_280"/>
<feBlend mode="normal" in="SourceGraphic" in2="effect1_dropShadow_215_280" result="shape"/>
</filter>
<linearGradient id="paint0_linear_215_280" x1="127.442" y1="6.60522" x2="131.588" y2="60.3177" gradientUnits="userSpaceOnUse">
<stop stop-color="#64F441"/>
<stop offset="1" stop-color="#0B7E47"/>
</linearGradient>
</defs>
</svg>
