<?xml version="1.0" encoding="UTF-8"?>
<svg width="150" height="127" viewBox="0 0 150 127" fill="none" xmlns="http://www.w3.org/2000/svg">
<path fill-rule="evenodd" clip-rule="evenodd" d="M0.891602 29.0565V14.6994C0.891602 10.7348 2.22376 7.35078 4.88808 4.54738C7.5524 1.74398 10.7685 0.342285 14.5364 0.342285H135.521C139.288 0.342285 142.505 1.74398 145.169 4.54738C147.833 7.35078 149.165 10.7348 149.165 14.6994V112.328C149.165 116.292 147.833 119.676 145.169 122.48C142.505 125.283 139.288 126.685 135.521 126.685H14.5364C10.7685 126.685 7.5524 125.283 4.88808 122.48C2.22376 119.676 0.891602 116.292 0.891602 112.328V29.0565Z" fill="url(#paint0_linear_234_735)"/>
<path d="M22.9524 97.816V110.416H21.7824V97.816H22.9524ZM27.8124 109.858V110.416H22.8984V109.858H27.8124ZM28.9104 107.5L27.8664 110.416H24.8784L25.5264 109.858C26.1624 109.858 26.6784 109.762 27.0744 109.57C27.4824 109.366 27.8124 109.084 28.0644 108.724C28.3164 108.364 28.5384 107.956 28.7304 107.5H28.9104ZM21.8364 109.102V110.416H20.3964V110.236C20.3964 110.236 20.4324 110.236 20.5044 110.236C20.5884 110.236 20.6304 110.236 20.6304 110.236C20.9424 110.236 21.2064 110.128 21.4224 109.912C21.6504 109.684 21.7704 109.414 21.7824 109.102H21.8364ZM21.8364 99.13H21.7824C21.7704 98.818 21.6504 98.554 21.4224 98.338C21.2064 98.11 20.9424 97.996 20.6304 97.996C20.6304 97.996 20.5884 97.996 20.5044 97.996C20.4324 97.996 20.3964 97.996 20.3964 97.996V97.816H21.8364V99.13ZM22.8984 99.13V97.816H24.3384V97.996C24.3264 97.996 24.2844 97.996 24.2124 97.996C24.1404 97.996 24.1044 97.996 24.1044 97.996C23.7924 97.996 23.5224 98.11 23.2944 98.338C23.0784 98.554 22.9644 98.818 22.9524 99.13H22.8984ZM36.3898 99.364C37.2298 99.364 38.0158 99.502 38.7478 99.778C39.4918 100.042 40.1398 100.426 40.6918 100.93C41.2558 101.434 41.6938 102.034 42.0058 102.73C42.3178 103.414 42.4738 104.176 42.4738 105.016C42.4738 105.856 42.3178 106.624 42.0058 107.32C41.6938 108.004 41.2558 108.598 40.6918 109.102C40.1398 109.606 39.4918 109.996 38.7478 110.272C38.0158 110.536 37.2298 110.668 36.3898 110.668C35.5498 110.668 34.7638 110.536 34.0318 110.272C33.2998 109.996 32.6518 109.606 32.0878 109.102C31.5358 108.598 31.1038 108.004 30.7918 107.32C30.4798 106.624 30.3238 105.856 30.3238 105.016C30.3238 104.176 30.4798 103.414 30.7918 102.73C31.1038 102.034 31.5358 101.434 32.0878 100.93C32.6518 100.426 33.2998 100.042 34.0318 99.778C34.7638 99.502 35.5498 99.364 36.3898 99.364ZM36.3898 110.128C37.2778 110.128 38.0818 109.912 38.8018 109.48C39.5218 109.048 40.0918 108.448 40.5118 107.68C40.9318 106.912 41.1418 106.024 41.1418 105.016C41.1418 103.996 40.9318 103.108 40.5118 102.352C40.0918 101.584 39.5218 100.984 38.8018 100.552C38.0818 100.12 37.2778 99.904 36.3898 99.904C35.5138 99.904 34.7158 100.12 33.9958 100.552C33.2758 100.984 32.7058 101.584 32.2858 102.352C31.8658 103.108 31.6558 103.996 31.6558 105.016C31.6558 106.024 31.8658 106.912 32.2858 107.68C32.7058 108.448 33.2758 109.048 33.9958 109.48C34.7158 109.912 35.5138 110.128 36.3898 110.128ZM50.1673 99.364C50.7193 99.364 51.2353 99.406 51.7153 99.49C52.2073 99.562 52.6693 99.682 53.1013 99.85C53.5453 100.006 53.9653 100.21 54.3613 100.462L54.7573 103H54.5953C54.4273 102.292 54.1513 101.71 53.7673 101.254C53.3953 100.798 52.9093 100.462 52.3093 100.246C51.7093 100.018 50.9893 99.904 50.1493 99.904C49.2373 99.904 48.4333 100.114 47.7373 100.534C47.0533 100.942 46.5193 101.53 46.1353 102.298C45.7513 103.054 45.5593 103.96 45.5593 105.016C45.5593 106.06 45.7513 106.966 46.1353 107.734C46.5193 108.502 47.0593 109.096 47.7553 109.516C48.4513 109.924 49.2553 110.128 50.1673 110.128C50.6713 110.128 51.1513 110.074 51.6073 109.966C52.0633 109.858 52.5013 109.69 52.9213 109.462C53.3533 109.222 53.7553 108.922 54.1273 108.562L54.1453 106.168C54.1573 105.94 54.0853 105.766 53.9293 105.646C53.7853 105.526 53.5813 105.466 53.3173 105.466H53.0653V105.286H56.3593V105.466H56.1073C55.5673 105.466 55.2973 105.706 55.2973 106.186V108.346C55.0213 108.694 54.6433 109.048 54.1633 109.408C53.6833 109.768 53.1073 110.068 52.4353 110.308C51.7753 110.548 51.0193 110.668 50.1673 110.668C48.9793 110.656 47.9413 110.422 47.0533 109.966C46.1773 109.51 45.4933 108.862 45.0013 108.022C44.5093 107.182 44.2633 106.18 44.2633 105.016C44.2633 103.84 44.5093 102.832 45.0013 101.992C45.4933 101.152 46.1833 100.504 47.0713 100.048C47.9593 99.592 48.9913 99.364 50.1673 99.364ZM63.6887 99.364C64.5287 99.364 65.3147 99.502 66.0467 99.778C66.7907 100.042 67.4387 100.426 67.9907 100.93C68.5547 101.434 68.9927 102.034 69.3047 102.73C69.6167 103.414 69.7727 104.176 69.7727 105.016C69.7727 105.856 69.6167 106.624 69.3047 107.32C68.9927 108.004 68.5547 108.598 67.9907 109.102C67.4387 109.606 66.7907 109.996 66.0467 110.272C65.3147 110.536 64.5287 110.668 63.6887 110.668C62.8487 110.668 62.0627 110.536 61.3307 110.272C60.5987 109.996 59.9507 109.606 59.3867 109.102C58.8347 108.598 58.4027 108.004 58.0907 107.32C57.7787 106.624 57.6227 105.856 57.6227 105.016C57.6227 104.176 57.7787 103.414 58.0907 102.73C58.4027 102.034 58.8347 101.434 59.3867 100.93C59.9507 100.426 60.5987 100.042 61.3307 99.778C62.0627 99.502 62.8487 99.364 63.6887 99.364ZM63.6887 110.128C64.5767 110.128 65.3807 109.912 66.1007 109.48C66.8207 109.048 67.3907 108.448 67.8107 107.68C68.2307 106.912 68.4407 106.024 68.4407 105.016C68.4407 103.996 68.2307 103.108 67.8107 102.352C67.3907 101.584 66.8207 100.984 66.1007 100.552C65.3807 100.12 64.5767 99.904 63.6887 99.904C62.8127 99.904 62.0147 100.12 61.2947 100.552C60.5747 100.984 60.0047 101.584 59.5847 102.352C59.1647 103.108 58.9547 103.996 58.9547 105.016C58.9547 106.024 59.1647 106.912 59.5847 107.68C60.0047 108.448 60.5747 109.048 61.2947 109.48C62.0147 109.912 62.8127 110.128 63.6887 110.128ZM73.4923 99.616V106.42C73.4923 107.584 73.7863 108.502 74.3743 109.174C74.9743 109.846 75.7903 110.182 76.8223 110.182C77.9623 110.182 78.8563 109.864 79.5043 109.228C80.1643 108.592 80.4943 107.722 80.4943 106.618V99.616H81.3223V106.618C81.3223 107.866 80.9203 108.856 80.1163 109.588C79.3243 110.308 78.2323 110.668 76.8403 110.668C75.4603 110.668 74.3623 110.308 73.5463 109.588C72.7423 108.868 72.3403 107.884 72.3403 106.636V99.616H73.4923ZM72.3763 99.616V100.57H72.3403C72.3283 100.354 72.2383 100.174 72.0703 100.03C71.9143 99.874 71.7163 99.796 71.4763 99.796C71.4763 99.796 71.4283 99.796 71.3323 99.796C71.2483 99.796 71.2063 99.796 71.2063 99.796V99.616H72.3763ZM74.6263 99.616V99.796C74.6263 99.796 74.5783 99.796 74.4823 99.796C74.3983 99.796 74.3563 99.796 74.3563 99.796C74.1283 99.796 73.9243 99.874 73.7443 100.03C73.5763 100.174 73.4923 100.354 73.4923 100.57H73.4563V99.616H74.6263ZM80.5303 99.616V100.57H80.4943C80.4943 100.354 80.4103 100.174 80.2423 100.03C80.0743 99.874 79.8703 99.796 79.6303 99.796C79.6303 99.796 79.5823 99.796 79.4863 99.796C79.4023 99.796 79.3603 99.796 79.3603 99.796V99.616H80.5303ZM82.4563 99.616V99.796C82.4563 99.796 82.4083 99.796 82.3123 99.796C82.2283 99.796 82.1863 99.796 82.1863 99.796C81.9583 99.796 81.7603 99.874 81.5923 100.03C81.4243 100.174 81.3343 100.354 81.3223 100.57H81.2863V99.616H82.4563ZM88.8858 99.67V110.416H87.7158V99.67H88.8858ZM93.2418 99.598V100.138H83.3598V99.598H93.2418ZM93.2418 100.102V101.344H93.0438V101.056C93.0438 100.804 92.9598 100.594 92.7918 100.426C92.6358 100.246 92.4198 100.15 92.1438 100.138V100.102H93.2418ZM93.2418 99.31V99.778L91.2258 99.598C91.4658 99.598 91.7178 99.586 91.9818 99.562C92.2578 99.526 92.5098 99.484 92.7378 99.436C92.9658 99.388 93.1338 99.346 93.2418 99.31ZM87.7518 109.264V110.416H86.4378V110.236C86.4498 110.236 86.4858 110.236 86.5458 110.236C86.6178 110.236 86.6538 110.236 86.6538 110.236C86.9418 110.236 87.1878 110.14 87.3918 109.948C87.5958 109.756 87.7038 109.528 87.7158 109.264H87.7518ZM88.8318 109.264H88.8858C88.8978 109.528 89.0058 109.756 89.2098 109.948C89.4138 110.14 89.6598 110.236 89.9478 110.236C89.9478 110.236 89.9778 110.236 90.0378 110.236C90.1098 110.236 90.1458 110.236 90.1458 110.236V110.416H88.8318V109.264ZM84.4578 100.102V100.138C84.1818 100.15 83.9598 100.246 83.7918 100.426C83.6358 100.594 83.5578 100.804 83.5578 101.056V101.344H83.3598V100.102H84.4578ZM83.3598 99.31C83.4678 99.346 83.6298 99.388 83.8458 99.436C84.0738 99.484 84.3258 99.526 84.6018 99.562C84.8778 99.586 85.1358 99.598 85.3758 99.598L83.3598 99.778V99.31Z" fill="white"/>
<path fill-rule="evenodd" clip-rule="evenodd" d="M46.2819 31.9309H34.6311V40.9142H31.883C31.883 39.7036 31.883 38.5137 31.883 37.3262C31.883 34.8376 31.8984 32.3479 31.8675 29.8594C31.8566 28.957 32.1086 28.5959 32.8882 28.6004C38.4452 28.6279 44.0023 28.6125 49.5603 28.6148C50.4954 28.6148 50.6419 28.7831 50.6419 29.8882C50.6419 40.3624 50.6419 50.8364 50.6419 61.31C50.6419 62.4239 50.4927 62.5967 49.5758 62.6044C49.362 62.6044 49.1464 62.5823 48.939 62.6044C48.2813 62.6803 47.8329 62.457 47.9111 61.3453C46.3338 62.9192 44.8783 64.3731 43.421 65.8259C42.2876 66.9562 41.1642 68.102 40.0108 69.2005C39.6596 69.4419 39.2862 69.6326 38.8982 69.7683L38.8982 68.4916C38.8982 59.1494 38.8943 49.807 38.8864 40.464C38.8517 39.8264 39.0883 39.2113 39.5141 38.8329C41.7336 36.6207 43.9177 34.3501 46.2819 31.9309ZM40.7559 53.6202C41.2216 54.199 41.5482 54.9409 41.882 54.9498C42.537 54.9574 42.597 54.0891 42.5743 53.4727C42.5524 52.9048 42.4833 52.0352 41.8274 52.1651C41.4672 52.2323 41.1998 52.9839 40.7559 53.6202Z" fill="#F5F4F2"/>
<path fill-rule="evenodd" clip-rule="evenodd" d="M29.7762 46.2882C31.6965 46.2882 33.5058 46.2834 35.3179 46.2882C36.6924 46.2882 37.3264 46.9583 37.3318 48.3824C37.3379 49.7593 37.3379 51.1364 37.3318 52.5135C37.4085 53.0822 37.2267 53.656 36.8411 54.0627C36.4554 54.4696 35.9106 54.6621 35.3697 54.5827C33.534 54.5894 31.6974 54.5827 29.7753 54.5827C29.7753 54.9771 29.7881 55.2795 29.7753 55.5811C29.7135 56.8378 29.134 57.2005 28.1025 56.5755C25.9784 55.2872 23.8717 53.9663 21.7595 52.6513C21.0709 52.2244 20.3732 51.8099 19.7064 51.3476C18.8877 50.7734 18.8704 50.0344 19.7146 49.5004C22.5248 47.7245 25.3487 45.9726 28.1862 44.2447C29.0849 43.6972 29.6789 44.0618 29.7726 45.1435C29.8008 45.4861 29.7762 45.8231 29.7762 46.2882Z" fill="#F5F4F2"/>
<path fill-rule="evenodd" clip-rule="evenodd" d="M31.8828 56.1543H34.5981V57.4206C34.5981 59.1319 34.5899 60.8423 34.6027 62.5536C34.6081 63.2505 34.3562 63.5567 33.6512 63.55C31.8828 63.5338 31.8828 63.5606 31.8828 61.6616C31.8828 59.845 31.8828 58.0284 31.8828 56.1543Z" fill="#F5F4F2"/>
<defs>
<linearGradient id="paint0_linear_234_735" x1="75.0285" y1="0.342285" x2="75.0285" y2="126.685" gradientUnits="userSpaceOnUse">
<stop stop-color="#64F441"/>
<stop offset="1" stop-color="#0B7E47"/>
</linearGradient>
</defs>
</svg>
