<?xml version="1.0" encoding="UTF-8"?>
<svg width="270" height="63" viewBox="0 0 270 63" fill="none" xmlns="http://www.w3.org/2000/svg">
<g filter="url(#filter0_d_215_297)">
<rect x="4" y="0.105225" width="262" height="54" rx="12" fill="url(#paint0_linear_215_297)" shape-rendering="crispEdges"/>
</g>
<path d="M79.7395 23.1092C79.4675 23.0412 79.1842 22.9789 78.8895 22.9222C78.6289 22.8656 78.3285 22.8202 77.9885 22.7862C77.6599 22.7409 77.3142 22.7182 76.9515 22.7182C76.1129 22.7182 75.5122 22.8486 75.1495 23.1092C74.7869 23.3586 74.6055 23.7496 74.6055 24.2822C74.6169 24.7016 74.7699 25.0586 75.0645 25.3532C75.3592 25.6366 75.7275 25.9029 76.1695 26.1522C76.6115 26.3902 77.0932 26.6282 77.6145 26.8662C78.1472 27.0929 78.6345 27.3592 79.0765 27.6652C79.5185 27.9599 79.8869 28.3112 80.1815 28.7192C80.4875 29.1159 80.6405 29.6032 80.6405 30.1812C80.6405 30.8499 80.4932 31.3882 80.1985 31.7962C79.9152 32.2042 79.5525 32.5216 79.1105 32.7482C78.6685 32.9749 78.1812 33.1279 77.6485 33.2072C77.1272 33.2866 76.6285 33.3262 76.1525 33.3262C75.6992 33.3262 75.2855 33.2979 74.9115 33.2412C74.5375 33.1846 74.2145 33.1222 73.9425 33.0542C73.6252 32.9749 73.3362 32.8842 73.0755 32.7822L73.4155 31.4052C73.6762 31.5186 73.9539 31.6149 74.2485 31.6942C74.5092 31.7622 74.7982 31.8246 75.1155 31.8812C75.4442 31.9379 75.7899 31.9662 76.1525 31.9662C76.5945 31.9662 76.9969 31.9379 77.3595 31.8812C77.7335 31.8246 78.0565 31.7339 78.3285 31.6092C78.6005 31.4846 78.8102 31.3202 78.9575 31.1162C79.1162 30.9122 79.1955 30.6629 79.1955 30.3682C79.1842 29.9262 79.0369 29.5692 78.7535 29.2972C78.4815 29.0139 78.1132 28.7476 77.6485 28.4982C77.1952 28.2376 76.7022 27.9882 76.1695 27.7502C75.6482 27.5122 75.1665 27.2402 74.7245 26.9342C74.2825 26.6282 73.9085 26.2656 73.6025 25.8462C73.3079 25.4269 73.1605 24.9056 73.1605 24.2822C73.1605 23.9196 73.2229 23.5626 73.3475 23.2112C73.4722 22.8599 73.6819 22.5482 73.9765 22.2762C74.2825 22.0042 74.6735 21.7832 75.1495 21.6132C75.6369 21.4432 76.2375 21.3582 76.9515 21.3582C77.3595 21.3582 77.7449 21.3809 78.1075 21.4262C78.4815 21.4602 78.8045 21.4999 79.0765 21.5452C79.3939 21.6019 79.6942 21.6642 79.9775 21.7322L79.7395 23.1092ZM89.2318 32.9012C88.9711 32.9806 88.6991 33.0486 88.4158 33.1052C88.1438 33.1619 87.8378 33.2129 87.4978 33.2582C87.1691 33.3036 86.8235 33.3262 86.4608 33.3262C85.8941 33.3262 85.3671 33.2469 84.8798 33.0882C84.3925 32.9296 83.9675 32.6746 83.6048 32.3232C83.2421 31.9719 82.9531 31.5186 82.7378 30.9632C82.5338 30.3966 82.4318 29.7052 82.4318 28.8892C82.4318 28.1526 82.5338 27.5066 82.7378 26.9512C82.9418 26.3846 83.2195 25.9142 83.5708 25.5402C83.9335 25.1549 84.3528 24.8659 84.8288 24.6732C85.3161 24.4806 85.8431 24.3842 86.4098 24.3842C86.9651 24.3842 87.4468 24.4919 87.8548 24.7072C88.2628 24.9226 88.5971 25.2172 88.8578 25.5912C89.1298 25.9539 89.3281 26.3846 89.4528 26.8832C89.5888 27.3706 89.6568 27.8862 89.6568 28.4302L89.4018 29.1782H83.9108C83.9108 29.5296 83.9561 29.8809 84.0468 30.2322C84.1375 30.5836 84.2905 30.9009 84.5058 31.1842C84.7325 31.4676 85.0215 31.6999 85.3728 31.8812C85.7355 32.0512 86.1831 32.1362 86.7158 32.1362C87.0558 32.1362 87.3675 32.1192 87.6508 32.0852C87.9341 32.0399 88.1778 31.9946 88.3818 31.9492C88.5971 31.8926 88.7955 31.8302 88.9768 31.7622L89.2318 32.9012ZM88.2458 28.0902C88.2458 28.0109 88.2288 27.8352 88.1948 27.5632C88.1608 27.2912 88.0815 27.0079 87.9568 26.7132C87.8321 26.4186 87.6395 26.1579 87.3788 25.9312C87.1181 25.6932 86.7725 25.5742 86.3418 25.5742C85.8658 25.5742 85.4748 25.6762 85.1688 25.8802C84.8628 26.0729 84.6191 26.3052 84.4378 26.5772C84.2565 26.8492 84.1318 27.1269 84.0638 27.4102C83.9958 27.6936 83.9618 27.9202 83.9618 28.0902H88.2458ZM93.9214 22.0042V24.5542H96.3864V25.6592H93.9214V30.1982C93.9214 30.5722 93.9271 30.8839 93.9384 31.1332C93.9611 31.3826 94.0007 31.5809 94.0574 31.7282C94.1141 31.8756 94.1934 31.9832 94.2954 32.0512C94.3974 32.1079 94.5277 32.1362 94.6864 32.1362C95.1171 32.1249 95.6157 31.9662 96.1824 31.6602L96.5904 32.6972C96.2164 32.9466 95.8651 33.1109 95.5364 33.1902C95.2191 33.2809 94.9017 33.3262 94.5844 33.3262C93.8364 33.3262 93.3094 33.1166 93.0034 32.6972C92.7087 32.2666 92.5614 31.5582 92.5614 30.5722V25.6592H90.9974V24.5542H92.5614V22.1742L93.9214 22.0042ZM105.28 22.8372H101.642V21.5112H110.346V22.8372H106.708V33.1052H105.28V22.8372ZM111.088 25.9312C111.088 25.6706 111.059 25.2626 111.003 24.7072L112.261 24.5372L112.397 25.7782H112.414C112.618 25.5176 112.816 25.2909 113.009 25.0982C113.201 24.9056 113.4 24.7412 113.604 24.6052C113.819 24.4579 114.023 24.3842 114.216 24.3842C114.476 24.3729 114.839 24.4012 115.304 24.4692L114.998 25.7782C114.624 25.7102 114.363 25.6819 114.216 25.6932C114.023 25.6932 113.819 25.7839 113.604 25.9652C113.388 26.1466 113.201 26.3392 113.043 26.5432C112.839 26.7926 112.64 27.0759 112.448 27.3932V33.1052H111.088V25.9312ZM121.867 29.1782C121.64 29.1896 121.425 29.2009 121.221 29.2122C121.017 29.2236 120.813 29.2406 120.609 29.2632C120.416 29.2746 120.241 29.2916 120.082 29.3142C119.266 29.4162 118.688 29.5976 118.348 29.8582C118.008 30.1076 117.838 30.4702 117.838 30.9462C117.838 31.3429 117.957 31.6432 118.195 31.8472C118.444 32.0399 118.767 32.1362 119.164 32.1362C119.708 32.1362 120.19 32.0456 120.609 31.8642C121.04 31.6716 121.459 31.4222 121.867 31.1162V29.1782ZM121.85 32.3062C121.317 32.6122 120.819 32.8616 120.354 33.0542C119.901 33.2356 119.408 33.3262 118.875 33.3262C118.116 33.3262 117.509 33.1449 117.056 32.7822C116.614 32.4082 116.393 31.7962 116.393 30.9462C116.393 30.5042 116.506 30.1189 116.733 29.7902C116.96 29.4616 117.254 29.1896 117.617 28.9742C117.991 28.7476 118.41 28.5719 118.875 28.4472C119.34 28.3226 119.816 28.2432 120.303 28.2092C120.507 28.1866 120.773 28.1696 121.102 28.1582C121.431 28.1356 121.686 28.1186 121.867 28.1072C121.867 27.7106 121.856 27.3592 121.833 27.0532C121.81 26.7359 121.742 26.4696 121.629 26.2542C121.516 26.0276 121.346 25.8576 121.119 25.7442C120.904 25.6309 120.592 25.5742 120.184 25.5742C119.855 25.5742 119.538 25.5969 119.232 25.6422C118.926 25.6762 118.654 25.7159 118.416 25.7612C118.133 25.8179 117.872 25.8802 117.634 25.9482L117.362 24.7752C117.645 24.7072 117.951 24.6449 118.28 24.5882C118.563 24.5316 118.892 24.4862 119.266 24.4522C119.64 24.4069 120.042 24.3842 120.473 24.3842C121.051 24.3842 121.516 24.4692 121.867 24.6392C122.23 24.8092 122.507 25.0416 122.7 25.3362C122.904 25.6196 123.04 25.9482 123.108 26.3222C123.187 26.6849 123.227 27.0702 123.227 27.4782V31.5582C123.227 31.7169 123.227 31.8869 123.227 32.0682C123.238 32.2382 123.25 32.4082 123.261 32.5782C123.284 32.7482 123.306 32.9239 123.329 33.1052L122.02 33.2412L121.85 32.3062ZM126.066 26.2542C126.077 26.0162 126.049 25.5006 125.981 24.7072L127.239 24.5372L127.426 25.6252C127.766 25.3986 128.1 25.2002 128.429 25.0302C128.769 24.8602 129.114 24.7129 129.466 24.5882C129.817 24.4522 130.157 24.3842 130.486 24.3842C130.95 24.3842 131.336 24.4409 131.642 24.5542C131.959 24.6562 132.214 24.8319 132.407 25.0812C132.599 25.3306 132.735 25.6592 132.815 26.0672C132.905 26.4752 132.951 26.9852 132.951 27.5972V33.1052H131.591V27.7502C131.591 27.4102 131.585 27.1099 131.574 26.8492C131.562 26.5772 131.511 26.3506 131.421 26.1692C131.341 25.9766 131.211 25.8292 131.03 25.7272C130.86 25.6252 130.616 25.5742 130.299 25.5742C130.004 25.5742 129.692 25.6422 129.364 25.7782C129.035 25.9029 128.712 26.0502 128.395 26.2202C128.077 26.3902 127.754 26.5886 127.426 26.8152V33.1052H126.066V26.2542ZM140.394 25.9482C139.918 25.8009 139.493 25.7046 139.119 25.6592C138.757 25.6026 138.422 25.5742 138.116 25.5742C137.72 25.5742 137.385 25.6706 137.113 25.8632C136.853 26.0559 136.722 26.3052 136.722 26.6112C136.734 26.8832 136.853 27.1156 137.079 27.3082C137.306 27.5009 137.567 27.6766 137.861 27.8352C138.167 27.9826 138.502 28.1469 138.864 28.3282C139.238 28.5096 139.584 28.7136 139.901 28.9402C140.23 29.1669 140.496 29.4389 140.7 29.7562C140.904 30.0736 141.012 30.4532 141.023 30.8952C141.012 31.3712 140.904 31.7679 140.7 32.0852C140.508 32.3912 140.253 32.6406 139.935 32.8332C139.629 33.0146 139.295 33.1392 138.932 33.2072C138.57 33.2866 138.23 33.3262 137.912 33.3262C137.504 33.3262 137.079 33.3036 136.637 33.2582C136.207 33.2129 135.742 33.1166 135.243 32.9692L135.498 31.7452C136.008 31.8812 136.473 31.9832 136.892 32.0512C137.312 32.1079 137.657 32.1362 137.929 32.1362C138.133 32.1362 138.332 32.1136 138.524 32.0682C138.728 32.0229 138.91 31.9606 139.068 31.8812C139.227 31.7906 139.352 31.6772 139.442 31.5412C139.544 31.4052 139.595 31.2522 139.595 31.0822C139.584 30.7649 139.476 30.4986 139.272 30.2832C139.068 30.0566 138.802 29.8582 138.473 29.6882C138.156 29.5069 137.81 29.3312 137.436 29.1612C137.074 28.9799 136.728 28.7759 136.399 28.5492C136.082 28.3112 135.816 28.0336 135.6 27.7162C135.385 27.3876 135.277 26.9852 135.277 26.5092C135.277 26.1692 135.362 25.8689 135.532 25.6082C135.714 25.3362 135.94 25.1152 136.212 24.9452C136.496 24.7639 136.802 24.6279 137.13 24.5372C137.47 24.4352 137.799 24.3842 138.116 24.3842C138.445 24.3842 138.813 24.4126 139.221 24.4692C139.629 24.5146 140.1 24.6052 140.632 24.7412L140.394 25.9482ZM148.044 29.1782C147.818 29.1896 147.602 29.2009 147.398 29.2122C147.194 29.2236 146.99 29.2406 146.786 29.2632C146.594 29.2746 146.418 29.2916 146.259 29.3142C145.443 29.4162 144.865 29.5976 144.525 29.8582C144.185 30.1076 144.015 30.4702 144.015 30.9462C144.015 31.3429 144.134 31.6432 144.372 31.8472C144.622 32.0399 144.945 32.1362 145.341 32.1362C145.885 32.1362 146.367 32.0456 146.786 31.8642C147.217 31.6716 147.636 31.4222 148.044 31.1162V29.1782ZM148.027 32.3062C147.495 32.6122 146.996 32.8616 146.531 33.0542C146.078 33.2356 145.585 33.3262 145.052 33.3262C144.293 33.3262 143.687 33.1449 143.233 32.7822C142.791 32.4082 142.57 31.7962 142.57 30.9462C142.57 30.5042 142.684 30.1189 142.91 29.7902C143.137 29.4616 143.432 29.1896 143.794 28.9742C144.168 28.7476 144.588 28.5719 145.052 28.4472C145.517 28.3226 145.993 28.2432 146.48 28.2092C146.684 28.1866 146.951 28.1696 147.279 28.1582C147.608 28.1356 147.863 28.1186 148.044 28.1072C148.044 27.7106 148.033 27.3592 148.01 27.0532C147.988 26.7359 147.92 26.4696 147.806 26.2542C147.693 26.0276 147.523 25.8576 147.296 25.7442C147.081 25.6309 146.769 25.5742 146.361 25.5742C146.033 25.5742 145.715 25.5969 145.409 25.6422C145.103 25.6762 144.831 25.7159 144.593 25.7612C144.31 25.8179 144.049 25.8802 143.811 25.9482L143.539 24.7752C143.823 24.7072 144.129 24.6449 144.457 24.5882C144.741 24.5316 145.069 24.4862 145.443 24.4522C145.817 24.4069 146.22 24.3842 146.65 24.3842C147.228 24.3842 147.693 24.4692 148.044 24.6392C148.407 24.8092 148.685 25.0416 148.877 25.3362C149.081 25.6196 149.217 25.9482 149.285 26.3222C149.365 26.6849 149.404 27.0702 149.404 27.4782V31.5582C149.404 31.7169 149.404 31.8869 149.404 32.0682C149.416 32.2382 149.427 32.4082 149.438 32.5782C149.461 32.7482 149.484 32.9239 149.506 33.1052L148.197 33.2412L148.027 32.3062ZM157.53 25.7952C157.337 25.7499 157.071 25.7046 156.731 25.6592C156.391 25.6026 156.045 25.5742 155.694 25.5742C155.184 25.5742 154.765 25.6762 154.436 25.8802C154.119 26.0842 153.869 26.3506 153.688 26.6792C153.507 26.9966 153.382 27.3536 153.314 27.7502C153.246 28.1356 153.212 28.5152 153.212 28.8892C153.212 29.4672 153.286 29.9659 153.433 30.3852C153.58 30.7932 153.773 31.1276 154.011 31.3882C154.26 31.6489 154.544 31.8416 154.861 31.9662C155.178 32.0796 155.513 32.1362 155.864 32.1362C156.102 32.1362 156.329 32.1249 156.544 32.1022C156.771 32.0682 156.975 32.0342 157.156 32.0002C157.349 31.9549 157.53 31.9039 157.7 31.8472L157.972 32.9862C157.734 33.0542 157.513 33.1109 157.309 33.1562C157.105 33.2016 156.861 33.2412 156.578 33.2752C156.306 33.3092 156.011 33.3262 155.694 33.3262C155.071 33.3262 154.515 33.2469 154.028 33.0882C153.541 32.9296 153.127 32.6746 152.787 32.3232C152.458 31.9719 152.203 31.5129 152.022 30.9462C151.852 30.3796 151.767 29.6882 151.767 28.8722C151.767 28.0789 151.875 27.3989 152.09 26.8322C152.317 26.2542 152.611 25.7896 152.974 25.4382C153.337 25.0756 153.75 24.8092 154.215 24.6392C154.691 24.4692 155.184 24.3842 155.694 24.3842C155.966 24.3842 156.227 24.4012 156.476 24.4352C156.737 24.4579 156.963 24.4862 157.156 24.5202C157.383 24.5656 157.598 24.6109 157.802 24.6562L157.53 25.7952ZM162.061 22.0042V24.5542H164.526V25.6592H162.061V30.1982C162.061 30.5722 162.067 30.8839 162.078 31.1332C162.101 31.3826 162.14 31.5809 162.197 31.7282C162.254 31.8756 162.333 31.9832 162.435 32.0512C162.537 32.1079 162.667 32.1362 162.826 32.1362C163.257 32.1249 163.755 31.9662 164.322 31.6602L164.73 32.6972C164.356 32.9466 164.005 33.1109 163.676 33.1902C163.359 33.2809 163.041 33.3262 162.724 33.3262C161.976 33.3262 161.449 33.1166 161.143 32.6972C160.848 32.2666 160.701 31.5582 160.701 30.5722V25.6592H159.137V24.5542H160.701V22.1742L162.061 22.0042ZM166.689 24.5372L168.049 24.3842V33.1052H166.689V24.5372ZM166.468 22.1062C166.468 21.8456 166.553 21.6302 166.723 21.4602C166.905 21.2789 167.126 21.1882 167.386 21.1882C167.658 21.1882 167.885 21.2789 168.066 21.4602C168.259 21.6302 168.355 21.8456 168.355 22.1062C168.355 22.3669 168.259 22.5879 168.066 22.7692C167.885 22.9392 167.658 23.0242 167.386 23.0242C167.126 23.0242 166.905 22.9392 166.723 22.7692C166.553 22.5879 166.468 22.3669 166.468 22.1062ZM171.885 28.8722C171.885 29.9716 172.129 30.7932 172.616 31.3372C173.115 31.8699 173.783 32.1362 174.622 32.1362C175.449 32.1362 176.095 31.8699 176.56 31.3372C177.025 30.8046 177.257 30.0056 177.257 28.9402C177.257 27.8069 177.008 26.9626 176.509 26.4072C176.022 25.8519 175.353 25.5742 174.503 25.5742C173.653 25.5742 173.001 25.8519 172.548 26.4072C172.106 26.9512 171.885 27.7729 171.885 28.8722ZM170.44 28.8552C170.44 27.9939 170.576 27.2799 170.848 26.7132C171.12 26.1352 171.466 25.6762 171.885 25.3362C172.304 24.9849 172.752 24.7412 173.228 24.6052C173.715 24.4579 174.174 24.3842 174.605 24.3842C175.013 24.3842 175.455 24.4522 175.931 24.5882C176.418 24.7129 176.866 24.9452 177.274 25.2852C177.682 25.6139 178.022 26.0616 178.294 26.6282C178.566 27.1836 178.702 27.8919 178.702 28.7532C178.702 29.6486 178.56 30.3909 178.277 30.9802C178.005 31.5696 177.659 32.0399 177.24 32.3912C176.821 32.7312 176.367 32.9692 175.88 33.1052C175.393 33.2526 174.939 33.3262 174.52 33.3262C174.089 33.3262 173.636 33.2582 173.16 33.1222C172.684 32.9862 172.242 32.7539 171.834 32.4252C171.437 32.0852 171.103 31.6262 170.831 31.0482C170.57 30.4702 170.44 29.7392 170.44 28.8552ZM181.12 26.2542C181.131 26.0162 181.103 25.5006 181.035 24.7072L182.293 24.5372L182.48 25.6252C182.82 25.3986 183.154 25.2002 183.483 25.0302C183.823 24.8602 184.168 24.7129 184.52 24.5882C184.871 24.4522 185.211 24.3842 185.54 24.3842C186.004 24.3842 186.39 24.4409 186.696 24.5542C187.013 24.6562 187.268 24.8319 187.461 25.0812C187.653 25.3306 187.789 25.6592 187.869 26.0672C187.959 26.4752 188.005 26.9852 188.005 27.5972V33.1052H186.645V27.7502C186.645 27.4102 186.639 27.1099 186.628 26.8492C186.616 26.5772 186.565 26.3506 186.475 26.1692C186.395 25.9766 186.265 25.8292 186.084 25.7272C185.914 25.6252 185.67 25.5742 185.353 25.5742C185.058 25.5742 184.746 25.6422 184.418 25.7782C184.089 25.9029 183.766 26.0502 183.449 26.2202C183.131 26.3902 182.808 26.5886 182.48 26.8152V33.1052H181.12V26.2542ZM195.449 25.9482C194.973 25.8009 194.548 25.7046 194.174 25.6592C193.811 25.6026 193.477 25.5742 193.171 25.5742C192.774 25.5742 192.44 25.6706 192.168 25.8632C191.907 26.0559 191.777 26.3052 191.777 26.6112C191.788 26.8832 191.907 27.1156 192.134 27.3082C192.36 27.5009 192.621 27.6766 192.916 27.8352C193.222 27.9826 193.556 28.1469 193.919 28.3282C194.293 28.5096 194.638 28.7136 194.956 28.9402C195.284 29.1669 195.551 29.4389 195.755 29.7562C195.959 30.0736 196.066 30.4532 196.078 30.8952C196.066 31.3712 195.959 31.7679 195.755 32.0852C195.562 32.3912 195.307 32.6406 194.99 32.8332C194.684 33.0146 194.349 33.1392 193.987 33.2072C193.624 33.2866 193.284 33.3262 192.967 33.3262C192.559 33.3262 192.134 33.3036 191.692 33.2582C191.261 33.2129 190.796 33.1166 190.298 32.9692L190.553 31.7452C191.063 31.8812 191.527 31.9832 191.947 32.0512C192.366 32.1079 192.712 32.1362 192.984 32.1362C193.188 32.1362 193.386 32.1136 193.579 32.0682C193.783 32.0229 193.964 31.9606 194.123 31.8812C194.281 31.7906 194.406 31.6772 194.497 31.5412C194.599 31.4052 194.65 31.2522 194.65 31.0822C194.638 30.7649 194.531 30.4986 194.327 30.2832C194.123 30.0566 193.856 29.8582 193.528 29.6882C193.21 29.5069 192.865 29.3312 192.491 29.1612C192.128 28.9799 191.782 28.7759 191.454 28.5492C191.136 28.3112 190.87 28.0336 190.655 27.7162C190.439 27.3876 190.332 26.9852 190.332 26.5092C190.332 26.1692 190.417 25.8689 190.587 25.6082C190.768 25.3362 190.995 25.1152 191.267 24.9452C191.55 24.7639 191.856 24.6279 192.185 24.5372C192.525 24.4352 192.853 24.3842 193.171 24.3842C193.499 24.3842 193.868 24.4126 194.276 24.4692C194.684 24.5146 195.154 24.6052 195.687 24.7412L195.449 25.9482Z" fill="white"/>
<defs>
<filter id="filter0_d_215_297" x="0" y="0.105225" width="270" height="62" filterUnits="userSpaceOnUse" color-interpolation-filters="sRGB">
<feFlood flood-opacity="0" result="BackgroundImageFix"/>
<feColorMatrix in="SourceAlpha" type="matrix" values="0 0 0 0 0 0 0 0 0 0 0 0 0 0 0 0 0 0 127 0" result="hardAlpha"/>
<feOffset dy="4"/>
<feGaussianBlur stdDeviation="2"/>
<feComposite in2="hardAlpha" operator="out"/>
<feColorMatrix type="matrix" values="0 0 0 0 0 0 0 0 0 0 0 0 0 0 0 0 0 0 0.25 0"/>
<feBlend mode="normal" in2="BackgroundImageFix" result="effect1_dropShadow_215_297"/>
<feBlend mode="normal" in="SourceGraphic" in2="effect1_dropShadow_215_297" result="shape"/>
</filter>
<linearGradient id="paint0_linear_215_297" x1="127.442" y1="6.60522" x2="131.588" y2="60.3177" gradientUnits="userSpaceOnUse">
<stop stop-color="#64F441"/>
<stop offset="1" stop-color="#0B7E47"/>
</linearGradient>
</defs>
</svg>
