<svg width="61" height="54" viewBox="0 0 61 54" fill="none" xmlns="http://www.w3.org/2000/svg">
<path fill-rule="evenodd" clip-rule="evenodd" d="M47.8245 28.9119C40.5468 28.911 34.6463 34.4157 34.6455 41.2067C34.6447 47.9979 40.5438 53.5038 47.8215 53.5046C55.0993 53.5053 60.9997 48.0008 61.0006 41.2096C61.0006 34.4223 55.1042 28.9165 47.8275 28.9119H47.8245ZM48.6698 50.2982V49.236C48.6698 48.7992 48.2903 48.445 47.8221 48.445C47.354 48.445 46.9745 48.7992 46.9745 49.236V50.2982C42.2461 49.9096 38.4978 46.4118 38.0813 41.9997H39.2226C39.6907 41.9997 40.0702 41.6454 40.0702 41.2087C40.0702 40.7719 39.6907 40.4177 39.2226 40.4177H38.0813C38.4978 36.0056 42.2462 32.5078 46.9745 32.1191V33.1827C46.9745 33.6196 47.354 33.9737 47.8221 33.9737C48.2903 33.9737 48.6698 33.6196 48.6698 33.1827V32.1246C53.3987 32.5122 57.1477 36.0105 57.563 40.4233H56.4217C55.9536 40.4233 55.574 40.7774 55.574 41.2142C55.574 41.6511 55.9536 42.0052 56.4217 42.0052H57.563C57.1443 46.4147 53.397 49.9091 48.6713 50.2968L48.6698 50.2982Z" fill="#F5F4F2"/>
<path fill-rule="evenodd" clip-rule="evenodd" d="M52.733 40.0194H49.676C49.2566 39.4497 48.5643 39.1086 47.8237 39.1065H47.786L45.0007 35.444C44.5926 34.9099 43.7978 34.7857 43.2254 35.1664C42.653 35.5473 42.5199 36.289 42.928 36.8231L45.7148 40.4856C45.6241 40.7159 45.5766 40.9588 45.5745 41.204C45.5745 42.1232 46.2158 42.9352 47.1567 43.2074C48.0976 43.4796 49.1188 43.1484 49.676 42.3904L52.7331 42.3902C53.4363 42.3902 54.0064 41.8582 54.0064 41.202C54.0064 40.5458 53.4363 40.0138 52.7331 40.0138L52.733 40.0194Z" fill="#F5F4F2"/>
<path fill-rule="evenodd" clip-rule="evenodd" d="M12.6803 16.7323C13.7868 16.7327 14.8482 16.3229 15.6307 15.5929C16.4133 14.863 16.8529 13.8726 16.8529 12.8402V4.38812C16.8529 2.23847 14.9855 0.49585 12.6818 0.49585C10.3782 0.49585 8.51074 2.23847 8.51074 4.38812V12.8402C8.51035 13.8723 8.94949 14.8623 9.7315 15.5922C10.5135 16.3222 11.5743 16.7323 12.6804 16.7323H12.6803Z" fill="#F5F4F2"/>
<path fill-rule="evenodd" clip-rule="evenodd" d="M38.2331 16.7321C39.3396 16.7324 40.4009 16.3226 41.1835 15.5927C41.9661 14.8627 42.4057 13.8724 42.4057 12.84L42.4057 4.38788C42.4057 2.23823 40.5382 0.495605 38.2346 0.495605C35.9309 0.495605 34.0635 2.23823 34.0635 4.38788V12.84C34.0628 13.8712 34.5017 14.8612 35.2835 15.5913C36.0653 16.3214 37.126 16.7319 38.2321 16.7321H38.2331Z" fill="#F5F4F2"/>
<path fill-rule="evenodd" clip-rule="evenodd" d="M18.334 27.5418C18.3344 27.0079 18.1072 26.4958 17.7025 26.1185C17.2978 25.7411 16.7489 25.5294 16.1767 25.5303H12.1793C10.9879 25.5294 10.0213 26.4301 10.0205 27.5418L10.0205 31.2706C10.0205 32.3835 10.9868 33.2858 12.1793 33.2866L16.1768 33.2864C16.7494 33.2864 17.2986 33.0741 17.7033 32.6959C18.1079 32.3178 18.3348 31.805 18.334 31.2706V27.5418Z" fill="#F5F4F2"/>
<path fill-rule="evenodd" clip-rule="evenodd" d="M29.6143 27.5429C29.6143 26.4327 28.6498 25.5327 27.4601 25.5327H23.455C22.2653 25.5327 21.3008 26.4327 21.3008 27.5429V31.2716C21.3001 32.3828 22.2646 33.2841 23.4552 33.2848H27.454C28.6442 33.283 29.6082 32.3823 29.6083 31.2716L29.6143 27.5429Z" fill="#F5F4F2"/>
<path fill-rule="evenodd" clip-rule="evenodd" d="M34.7388 25.5304C34.1666 25.5297 33.6175 25.7412 33.2126 26.1185C32.8076 26.496 32.5801 27.0081 32.5801 27.542V31.2707C32.5887 32.2561 33.37 33.0863 34.4158 33.2218C36.0047 30.9139 38.2438 29.0585 40.8875 27.8591V27.5406C40.888 27.007 40.6609 26.4949 40.2563 26.1175C39.8516 25.74 39.3027 25.5284 38.7306 25.5291L34.7388 25.5304Z" fill="#F5F4F2"/>
<path fill-rule="evenodd" clip-rule="evenodd" d="M12.1793 35.6365C10.9884 35.6356 10.0222 36.5355 10.0205 37.6467V41.3768C10.0221 42.488 10.9883 43.3878 12.1791 43.387H16.1783C16.7497 43.3875 17.2979 43.1758 17.702 42.7987C18.1061 42.4216 18.3329 41.9102 18.3325 41.3768V37.6467C18.3329 37.1134 18.1061 36.6018 17.702 36.2247C17.2979 35.8478 16.7497 35.6361 16.1782 35.6365H12.1793Z" fill="#F5F4F2"/>
<path fill-rule="evenodd" clip-rule="evenodd" d="M27.4547 35.6372H23.4648C22.2748 35.6379 21.3105 36.5383 21.3105 37.6488V41.3761C21.3102 41.9096 21.537 42.421 21.9411 42.7981C22.3452 43.1752 22.8933 43.3867 23.4648 43.3863H27.4608C28.6505 43.3863 29.615 42.4863 29.615 41.3761V37.6502C29.6154 37.1157 29.3878 36.6029 28.9825 36.2253C28.5772 35.8477 28.0275 35.636 27.4547 35.6372Z" fill="#F5F4F2"/>
<path fill-rule="evenodd" clip-rule="evenodd" d="M33.2832 47.2393H13.0044C9.51097 47.2347 6.67972 44.5941 6.67307 41.3341L6.67308 21.5647H44.2446V26.7374C46.434 26.2527 48.7101 26.2171 50.9157 26.633L50.9156 8.04126H44.9058V12.8308C44.9058 16.2703 41.9178 19.0586 38.2318 19.0586C34.5458 19.0586 31.5577 16.2703 31.5577 12.8308V8.04126H19.3569V12.8308C19.3569 16.2703 16.3689 19.0586 12.6829 19.0586C8.99692 19.0586 6.00884 16.2703 6.00884 12.8308V8.04126H-0.000976562V41.3284C-0.000976562 48.0308 5.82174 53.4642 13.0044 53.4642H37.9132C38.2152 53.4642 38.5005 53.4417 38.7919 53.4234C36.3845 51.8705 34.4793 49.7317 33.2832 47.2393H33.2832Z" fill="#F5F4F2"/>
</svg>
