<?xml version="1.0" encoding="UTF-8"?>
<svg width="149" height="127" viewBox="0 0 149 127" fill="none" xmlns="http://www.w3.org/2000/svg">
<path fill-rule="evenodd" clip-rule="evenodd" d="M0 29.0311V14.674C0 10.7094 1.33216 7.32538 3.99648 4.52199C6.66079 1.71859 9.87691 0.316895 13.6448 0.316895H134.629C138.397 0.316895 141.613 1.71859 144.277 4.52199C146.942 7.32538 148.274 10.7094 148.274 14.674V112.302C148.274 116.267 146.942 119.651 144.277 122.454C141.613 125.258 138.397 126.659 134.629 126.659H13.6448C9.87691 126.659 6.66079 125.258 3.99648 122.454C1.33216 119.651 0 116.267 0 112.302V29.0311Z" fill="url(#paint0_linear_234_720)"/>
<path d="M37.0074 52.4948C33.3232 52.4948 30.333 49.5421 30.333 45.904C30.333 42.2659 33.3232 39.3132 37.0074 39.3132C40.6917 39.3132 43.6819 42.2659 43.6819 45.904C43.6819 49.5421 40.6917 52.4948 37.0074 52.4948ZM37.0074 41.9495C34.8004 41.9495 33.0028 43.7247 33.0028 45.904C33.0028 48.0834 34.8004 49.8585 37.0074 49.8585C39.2144 49.8585 41.0121 48.0834 41.0121 45.904C41.0121 43.7247 39.2144 41.9495 37.0074 41.9495Z" fill="#F5F4F2"/>
<path d="M42.7207 63.8128C42.3469 63.8128 41.9732 63.7601 41.5994 63.6722C40.4959 63.3735 39.5704 62.688 38.983 61.7214L38.7694 61.3699C37.7193 59.5772 36.2777 59.5772 35.2275 61.3699L35.0318 61.7038C34.4444 62.688 33.5189 63.391 32.4154 63.6722C31.2941 63.971 30.1372 63.8128 29.1583 63.2328L26.0969 61.4929C25.0112 60.8777 24.2281 59.8759 23.8899 58.6632C23.5695 57.4505 23.7297 56.2027 24.3527 55.1306C24.8688 54.2342 25.0112 53.4258 24.7086 52.9161C24.4061 52.4064 23.6407 52.1076 22.5906 52.1076C19.992 52.1076 17.874 50.0161 17.874 47.4501V44.3569C17.874 41.7908 19.992 39.6994 22.5906 39.6994C23.6407 39.6994 24.4061 39.4006 24.7086 38.8909C25.0112 38.3812 24.8866 37.5728 24.3527 36.6764C23.7297 35.6043 23.5695 34.3389 23.8899 33.1438C24.2103 31.931 24.9934 30.9292 26.0969 30.3141L29.1761 28.5741C31.1873 27.3966 33.8393 28.082 35.0496 30.1032L35.2631 30.4547C36.3132 32.2474 37.7549 32.2474 38.805 30.4547L39.0008 30.1208C40.2111 28.082 42.8631 27.3966 44.8921 28.5917L47.9535 30.3317C49.0392 30.9468 49.8223 31.9486 50.1605 33.1613C50.4808 34.374 50.3206 35.6219 49.6977 36.694C49.1815 37.5903 49.0392 38.3988 49.3417 38.9085C49.6443 39.4182 50.4096 39.717 51.4598 39.717C54.0583 39.717 56.1763 41.8084 56.1763 44.3744V47.4677C56.1763 50.0337 54.0583 52.1252 51.4598 52.1252C50.4096 52.1252 49.6443 52.424 49.3417 52.9337C49.0392 53.4433 49.1637 54.2518 49.6977 55.1482C50.3206 56.2203 50.4986 57.4857 50.1605 58.6808C49.8401 59.8935 49.057 60.8953 47.9535 61.5105L44.8743 63.2504C44.198 63.6195 43.4682 63.8128 42.7207 63.8128ZM37.0074 57.3099C38.5915 57.3099 40.0687 58.2942 41.0832 60.0341L41.279 60.3681C41.4926 60.7371 41.8486 61.0008 42.2757 61.1062C42.7029 61.2117 43.1301 61.1589 43.486 60.948L46.5652 59.1905C47.0279 58.9269 47.3839 58.4875 47.5263 57.9602C47.6687 57.433 47.5975 56.8881 47.3305 56.4312C46.316 54.7088 46.1914 52.9337 46.9745 51.5804C47.7577 50.227 49.3773 49.4537 51.4064 49.4537C52.5455 49.4537 53.4532 48.5574 53.4532 47.4326V44.3393C53.4532 43.232 52.5455 42.3181 51.4064 42.3181C49.3773 42.3181 47.7577 41.5448 46.9745 40.1915C46.1914 38.8382 46.316 37.0631 47.3305 35.3407C47.5975 34.8837 47.6687 34.3389 47.5263 33.8116C47.3839 33.2844 47.0457 32.8625 46.583 32.5813L43.5038 30.8414C42.7385 30.3844 41.724 30.648 41.2612 31.4214L41.0654 31.7553C40.0509 33.4953 38.5737 34.4795 36.9896 34.4795C35.4055 34.4795 33.9283 33.4953 32.9137 31.7553L32.718 31.4038C32.273 30.6656 31.2763 30.402 30.5109 30.8414L27.4318 32.5989C26.969 32.8625 26.6131 33.3019 26.4707 33.8292C26.3283 34.3565 26.3995 34.9013 26.6665 35.3583C27.681 37.0806 27.8056 38.8558 27.0224 40.2091C26.2393 41.5624 24.6196 42.3357 22.5906 42.3357C21.4515 42.3357 20.5438 43.232 20.5438 44.3569V47.4501C20.5438 48.5574 21.4515 49.4713 22.5906 49.4713C24.6196 49.4713 26.2393 50.2446 27.0224 51.5979C27.8056 52.9512 27.681 54.7264 26.6665 56.4487C26.3995 56.9057 26.3283 57.4505 26.4707 57.9778C26.6131 58.5051 26.9512 58.9269 27.414 59.2081L30.4931 60.948C30.8669 61.1765 31.3119 61.2293 31.7212 61.1238C32.1484 61.0183 32.5044 60.7371 32.7358 60.3681L32.9315 60.0341C33.946 58.3117 35.4233 57.3099 37.0074 57.3099Z" fill="#F5F4F2"/>
<path d="M22.7114 89.9932C22.9034 89.9932 23.1074 90.0052 23.3234 90.0292C23.5514 90.0532 23.7674 90.0892 23.9714 90.1372C24.1874 90.1732 24.3794 90.2152 24.5474 90.2632C24.7274 90.2992 24.8654 90.3412 24.9614 90.3892V92.3872H24.7994C24.7994 91.8112 24.6014 91.3612 24.2054 91.0372C23.8094 90.7012 23.3294 90.5332 22.7654 90.5332C22.1054 90.5332 21.5714 90.7432 21.1634 91.1632C20.7554 91.5712 20.5514 92.0512 20.5514 92.6032C20.5514 92.8312 20.5994 93.1012 20.6954 93.4132C20.8034 93.7132 20.9954 93.9952 21.2714 94.2592L24.8174 97.5352C25.1774 97.8712 25.4174 98.2312 25.5374 98.6152C25.6574 98.9992 25.7174 99.3712 25.7174 99.7312C25.7174 100.727 25.4114 101.537 24.7994 102.161C24.1994 102.785 23.3834 103.097 22.3514 103.097C22.0634 103.097 21.7214 103.067 21.3254 103.007C20.9414 102.947 20.5634 102.845 20.1914 102.701C19.8314 102.545 19.5314 102.347 19.2914 102.107C19.2554 101.915 19.2374 101.675 19.2374 101.387C19.2374 101.099 19.2614 100.799 19.3094 100.487C19.3574 100.163 19.4234 99.8692 19.5074 99.6052H19.6694C19.6094 100.217 19.6874 100.751 19.9034 101.207C20.1194 101.663 20.4314 102.011 20.8394 102.251C21.2594 102.479 21.7334 102.581 22.2614 102.557C22.9214 102.521 23.4854 102.293 23.9534 101.873C24.4334 101.441 24.6734 100.865 24.6734 100.145C24.6734 99.7972 24.6134 99.4852 24.4934 99.2092C24.3734 98.9212 24.1994 98.6752 23.9714 98.4712L20.5154 95.2672C20.1554 94.9312 19.9034 94.5652 19.7594 94.1692C19.6154 93.7612 19.5434 93.3832 19.5434 93.0352C19.5434 92.5312 19.6634 92.0452 19.9034 91.5772C20.1434 91.1092 20.4974 90.7312 20.9654 90.4432C21.4454 90.1432 22.0274 89.9932 22.7114 89.9932ZM24.9614 90.1732V90.5512H23.5934V90.1732H24.9614ZM30.1743 92.0452V102.845H29.0223V92.0452H30.1743ZM35.0163 102.287L34.9803 102.845H30.1383V102.287H35.0163ZM34.1703 97.1752V97.7152H30.1383V97.1752H34.1703ZM34.9983 92.0452V92.6032H30.1383V92.0452H34.9983ZM36.0243 100.271L35.0343 102.845H32.2983L32.9103 102.287C33.5103 102.287 33.9903 102.203 34.3503 102.035C34.7223 101.855 35.0223 101.615 35.2503 101.315C35.4783 101.003 35.6763 100.655 35.8443 100.271H36.0243ZM34.1703 97.6792V98.7052H33.9723V98.4712C33.9723 98.2672 33.9123 98.0932 33.7923 97.9492C33.6723 97.7932 33.4863 97.7152 33.2343 97.7152V97.6792H34.1703ZM34.1703 96.1852V97.2112H33.2343V97.1752C33.4863 97.1752 33.6723 97.1032 33.7923 96.9592C33.9123 96.8032 33.9723 96.6232 33.9723 96.4192V96.1852H34.1703ZM34.9983 92.5492V93.7912H34.8003V93.5212C34.8003 93.2692 34.7163 93.0532 34.5483 92.8732C34.3923 92.6932 34.1763 92.6032 33.9003 92.6032V92.5492H34.9983ZM34.9983 91.7572V92.2252L32.9463 92.0452C33.3183 92.0452 33.7143 92.0152 34.1343 91.9552C34.5543 91.8832 34.8423 91.8172 34.9983 91.7572ZM29.0583 101.693L29.2923 102.845H27.7263V102.665C27.7263 102.665 27.7683 102.665 27.8523 102.665C27.9363 102.665 27.9783 102.665 27.9783 102.665C28.2783 102.665 28.5243 102.569 28.7163 102.377C28.9083 102.185 29.0103 101.957 29.0223 101.693H29.0583ZM29.0583 93.1792H29.0223C29.0103 92.9032 28.9083 92.6752 28.7163 92.4952C28.5243 92.3152 28.2783 92.2252 27.9783 92.2252C27.9783 92.2252 27.9363 92.2252 27.8523 92.2252C27.7683 92.2252 27.7263 92.2252 27.7263 92.2252V92.0452H29.2923L29.0583 93.1792ZM42.3585 92.0992V102.845H41.1885V92.0992H42.3585ZM46.7145 92.0272V92.5672H36.8325V92.0272H46.7145ZM46.7145 92.5312V93.7732H46.5165V93.4852C46.5165 93.2332 46.4325 93.0232 46.2645 92.8552C46.1085 92.6752 45.8925 92.5792 45.6165 92.5672V92.5312H46.7145ZM46.7145 91.7392V92.2072L44.6985 92.0272C44.9385 92.0272 45.1905 92.0152 45.4545 91.9912C45.7305 91.9552 45.9825 91.9132 46.2105 91.8652C46.4385 91.8172 46.6065 91.7752 46.7145 91.7392ZM41.2245 101.693V102.845H39.9105V102.665C39.9225 102.665 39.9585 102.665 40.0185 102.665C40.0905 102.665 40.1265 102.665 40.1265 102.665C40.4145 102.665 40.6605 102.569 40.8645 102.377C41.0685 102.185 41.1765 101.957 41.1885 101.693H41.2245ZM42.3045 101.693H42.3585C42.3705 101.957 42.4785 102.185 42.6825 102.377C42.8865 102.569 43.1325 102.665 43.4205 102.665C43.4205 102.665 43.4505 102.665 43.5105 102.665C43.5825 102.665 43.6185 102.665 43.6185 102.665V102.845H42.3045V101.693ZM37.9305 92.5312V92.5672C37.6545 92.5792 37.4325 92.6752 37.2645 92.8552C37.1085 93.0232 37.0305 93.2332 37.0305 93.4852V93.7732H36.8325V92.5312H37.9305ZM36.8325 91.7392C36.9405 91.7752 37.1025 91.8172 37.3185 91.8652C37.5465 91.9132 37.7985 91.9552 38.0745 91.9912C38.3505 92.0152 38.6085 92.0272 38.8485 92.0272L36.8325 92.2072V91.7392ZM53.0284 92.0992V102.845H51.8584V92.0992H53.0284ZM57.3844 92.0272V92.5672H47.5024V92.0272H57.3844ZM57.3844 92.5312V93.7732H57.1864V93.4852C57.1864 93.2332 57.1024 93.0232 56.9344 92.8552C56.7784 92.6752 56.5624 92.5792 56.2864 92.5672V92.5312H57.3844ZM57.3844 91.7392V92.2072L55.3684 92.0272C55.6084 92.0272 55.8604 92.0152 56.1244 91.9912C56.4004 91.9552 56.6524 91.9132 56.8804 91.8652C57.1084 91.8172 57.2764 91.7752 57.3844 91.7392ZM51.8944 101.693V102.845H50.5804V102.665C50.5924 102.665 50.6284 102.665 50.6884 102.665C50.7604 102.665 50.7964 102.665 50.7964 102.665C51.0844 102.665 51.3304 102.569 51.5344 102.377C51.7384 102.185 51.8464 101.957 51.8584 101.693H51.8944ZM52.9744 101.693H53.0284C53.0404 101.957 53.1484 102.185 53.3524 102.377C53.5564 102.569 53.8024 102.665 54.0904 102.665C54.0904 102.665 54.1204 102.665 54.1804 102.665C54.2524 102.665 54.2884 102.665 54.2884 102.665V102.845H52.9744V101.693ZM48.6004 92.5312V92.5672C48.3244 92.5792 48.1024 92.6752 47.9344 92.8552C47.7784 93.0232 47.7004 93.2332 47.7004 93.4852V93.7732H47.5024V92.5312H48.6004ZM47.5024 91.7392C47.6104 91.7752 47.7724 91.8172 47.9884 91.8652C48.2164 91.9132 48.4684 91.9552 48.7444 91.9912C49.0204 92.0152 49.2784 92.0272 49.5184 92.0272L47.5024 92.2072V91.7392ZM61.2387 92.0452V102.845H60.1047V92.0452H61.2387ZM60.1587 101.693V102.845H58.6287V102.665C58.6287 102.665 58.6707 102.665 58.7547 102.665C58.8387 102.665 58.8807 102.665 58.8807 102.665C59.2167 102.665 59.4987 102.569 59.7267 102.377C59.9667 102.185 60.0927 101.957 60.1047 101.693H60.1587ZM61.1847 101.693H61.2387C61.2507 101.957 61.3707 102.185 61.5987 102.377C61.8387 102.569 62.1267 102.665 62.4627 102.665C62.4627 102.665 62.4987 102.665 62.5707 102.665C62.6547 102.665 62.6967 102.665 62.6967 102.665L62.7147 102.845H61.1847V101.693ZM61.1847 93.1972V92.0452H62.7147L62.6967 92.2252C62.6967 92.2252 62.6547 92.2252 62.5707 92.2252C62.4987 92.2252 62.4627 92.2252 62.4627 92.2252C62.1267 92.2252 61.8387 92.3212 61.5987 92.5132C61.3707 92.6932 61.2507 92.9212 61.2387 93.1972H61.1847ZM60.1587 93.1972H60.1047C60.0927 92.9212 59.9667 92.6932 59.7267 92.5132C59.4987 92.3212 59.2167 92.2252 58.8807 92.2252C58.8687 92.2252 58.8207 92.2252 58.7367 92.2252C58.6647 92.2252 58.6287 92.2252 58.6287 92.2252V92.0452H60.1587V93.1972ZM65.6295 91.7752L75.6015 101.171L75.7815 103.097L65.8095 93.6472L65.6295 91.7752ZM65.6655 101.729V102.845H64.3155V102.665C64.3155 102.665 64.3635 102.665 64.4595 102.665C64.5675 102.665 64.6215 102.665 64.6215 102.665C64.8975 102.665 65.1315 102.575 65.3235 102.395C65.5155 102.215 65.6115 101.993 65.6115 101.729H65.6655ZM66.4215 101.729C66.4215 101.993 66.5175 102.215 66.7095 102.395C66.9135 102.575 67.1475 102.665 67.4115 102.665C67.4115 102.665 67.4595 102.665 67.5555 102.665C67.6635 102.665 67.7175 102.665 67.7175 102.665V102.845H66.3675V101.729H66.4215ZM65.6295 91.7752L66.4035 92.7832L66.4215 102.845H65.6115V94.0252C65.6115 93.4132 65.5815 92.8852 65.5215 92.4412C65.4735 91.9972 65.4495 91.7752 65.4495 91.7752H65.6295ZM75.7815 92.0452V100.793C75.7815 101.177 75.7935 101.549 75.8175 101.909C75.8415 102.257 75.8655 102.545 75.8895 102.773C75.9255 102.989 75.9435 103.097 75.9435 103.097H75.7815L74.9895 102.143V92.0452H75.7815ZM75.7275 93.1612V92.0452H77.0775V92.2252C77.0775 92.2252 77.0235 92.2252 76.9155 92.2252C76.8195 92.2252 76.7715 92.2252 76.7715 92.2252C76.5075 92.2252 76.2735 92.3152 76.0695 92.4952C75.8775 92.6752 75.7815 92.8972 75.7815 93.1612H75.7275ZM74.9895 93.1612C74.9775 92.8972 74.8755 92.6752 74.6835 92.4952C74.4915 92.3152 74.2575 92.2252 73.9815 92.2252C73.9815 92.2252 73.9275 92.2252 73.8195 92.2252C73.7235 92.2252 73.6755 92.2252 73.6755 92.2252V92.0452H75.0255V93.1612H74.9895ZM84.429 91.7932C84.981 91.7932 85.497 91.8352 85.977 91.9192C86.469 91.9912 86.931 92.1112 87.363 92.2792C87.807 92.4352 88.227 92.6392 88.623 92.8912L89.019 95.4292H88.857C88.689 94.7212 88.413 94.1392 88.029 93.6832C87.657 93.2272 87.171 92.8912 86.571 92.6752C85.971 92.4472 85.251 92.3332 84.411 92.3332C83.499 92.3332 82.695 92.5432 81.999 92.9632C81.315 93.3712 80.781 93.9592 80.397 94.7272C80.013 95.4832 79.821 96.3892 79.821 97.4452C79.821 98.4892 80.013 99.3952 80.397 100.163C80.781 100.931 81.321 101.525 82.017 101.945C82.713 102.353 83.517 102.557 84.429 102.557C84.933 102.557 85.413 102.503 85.869 102.395C86.325 102.287 86.763 102.119 87.183 101.891C87.615 101.651 88.017 101.351 88.389 100.991L88.407 98.5972C88.419 98.3692 88.347 98.1952 88.191 98.0752C88.047 97.9552 87.843 97.8952 87.579 97.8952H87.327V97.7152H90.621V97.8952H90.369C89.829 97.8952 89.559 98.1352 89.559 98.6152V100.775C89.283 101.123 88.905 101.477 88.425 101.837C87.945 102.197 87.369 102.497 86.697 102.737C86.037 102.977 85.281 103.097 84.429 103.097C83.241 103.085 82.203 102.851 81.315 102.395C80.439 101.939 79.755 101.291 79.263 100.451C78.771 99.6112 78.525 98.6092 78.525 97.4452C78.525 96.2692 78.771 95.2612 79.263 94.4212C79.755 93.5812 80.445 92.9332 81.333 92.4772C82.221 92.0212 83.253 91.7932 84.429 91.7932ZM95.1964 91.7932C95.5324 91.7932 95.8264 91.8052 96.0784 91.8292C96.3304 91.8532 96.5464 91.8832 96.7264 91.9192C96.9184 91.9432 97.0804 91.9792 97.2124 92.0272C97.3564 92.0632 97.4824 92.0992 97.5904 92.1352L97.6084 93.9172H97.3924C97.3924 93.4252 97.2244 93.0412 96.8884 92.7652C96.5524 92.4772 96.0304 92.3332 95.3224 92.3332C94.7224 92.3332 94.2064 92.5012 93.7744 92.8372C93.3544 93.1612 93.1504 93.5632 93.1624 94.0432C93.1624 94.1992 93.1804 94.3612 93.2164 94.5292C93.2644 94.6852 93.3364 94.8412 93.4324 94.9972C93.5404 95.1532 93.6844 95.3092 93.8644 95.4652L97.5004 98.2732C97.7764 98.5012 97.9804 98.7952 98.1124 99.1552C98.2444 99.5032 98.3164 99.8512 98.3284 100.199C98.3404 100.727 98.2024 101.213 97.9144 101.657C97.6264 102.101 97.2364 102.455 96.7444 102.719C96.2644 102.971 95.7304 103.097 95.1424 103.097C94.7944 103.097 94.4164 103.067 94.0084 103.007C93.6124 102.947 93.2404 102.857 92.8924 102.737C92.5444 102.605 92.2564 102.443 92.0284 102.251C91.9924 102.083 91.9744 101.873 91.9744 101.621C91.9744 101.357 91.9924 101.081 92.0284 100.793C92.0764 100.505 92.1364 100.247 92.2084 100.019H92.4244C92.3764 100.559 92.4544 101.021 92.6584 101.405C92.8624 101.789 93.1624 102.083 93.5584 102.287C93.9544 102.479 94.4164 102.569 94.9444 102.557C95.6884 102.533 96.2704 102.347 96.6904 101.999C97.1224 101.639 97.3384 101.165 97.3384 100.577C97.3384 100.289 97.2844 100.031 97.1764 99.8032C97.0804 99.5632 96.9184 99.3412 96.6904 99.1372L93.0904 96.3652C92.7544 96.0772 92.5264 95.7592 92.4064 95.4112C92.2864 95.0632 92.2264 94.7332 92.2264 94.4212C92.2264 93.9292 92.3584 93.4852 92.6224 93.0892C92.8864 92.6932 93.2404 92.3812 93.6844 92.1532C94.1404 91.9132 94.6444 91.7932 95.1964 91.7932ZM97.5724 91.9552L97.5904 92.2792H96.3124V91.9552H97.5724Z" fill="white"/>
<defs>
<linearGradient id="paint0_linear_234_720" x1="74.1369" y1="0.316895" x2="74.1369" y2="126.659" gradientUnits="userSpaceOnUse">
<stop stop-color="#64F441"/>
<stop offset="1" stop-color="#0B7E47"/>
</linearGradient>
</defs>
</svg>
